<?xml version="1.0" encoding="UTF-8" standalone="no"?>
<!-- Created with Inkscape (http://www.inkscape.org/) -->

<svg
   xmlns:dc="http://purl.org/dc/elements/1.1/"
   xmlns:cc="http://creativecommons.org/ns#"
   xmlns:rdf="http://www.w3.org/1999/02/22-rdf-syntax-ns#"
   xmlns:svg="http://www.w3.org/2000/svg"
   xmlns="http://www.w3.org/2000/svg"
   xmlns:sodipodi="http://sodipodi.sourceforge.net/DTD/sodipodi-0.dtd"
   xmlns:inkscape="http://www.inkscape.org/namespaces/inkscape"
   version="1.1"
   id="svg6612"
   xml:space="preserve"
   width="600mm"
   height="300mm"
   viewBox="0 0 2267.7165 1133.8582"
   sodipodi:docname="Back plate 2ML.svg"
   inkscape:version="0.92.4 (5da689c313, 2019-01-14)"><metadata
     id="metadata6618"><rdf:RDF><cc:Work
         rdf:about=""><dc:format>image/svg+xml</dc:format><dc:type
           rdf:resource="http://purl.org/dc/dcmitype/StillImage" /><dc:title /></cc:Work></rdf:RDF></metadata><defs
     id="defs6616" /><sodipodi:namedview
     pagecolor="#ffffff"
     bordercolor="#666666"
     borderopacity="1"
     objecttolerance="10"
     gridtolerance="10"
     guidetolerance="10"
     inkscape:pageopacity="0"
     inkscape:pageshadow="2"
     inkscape:window-width="1920"
     inkscape:window-height="1017"
     id="namedview6614"
     showgrid="false"
     units="mm"
     inkscape:document-units="mm"
     inkscape:zoom="0.40917969"
     inkscape:cx="1288.4642"
     inkscape:cy="405.83401"
     inkscape:window-x="-8"
     inkscape:window-y="-8"
     inkscape:window-maximized="1"
     inkscape:current-layer="g7846" /><g
     id="g6620"
     inkscape:groupmode="layer"
     inkscape:label="frame"
     transform="matrix(1.3333333,0,0,-1.3333333,0,1133.8584)"><g
       id="g7846"><path
         sodipodi:nodetypes="cccccccccccccccccccccccccccc"
         inkscape:connector-curvature="0"
         d="m 37.16117,84.5086 v 0 187.0866 h 17.0079 V 498.3668 H 37.16117 V 725.1385 H 1667.0825 v -229.804 h 17.0079 V 268.5629 h -17.0079 V 101.5165 h -42.5197 V 84.5086 h -226.7717 v 17.0079 H 1171.0195 V 84.5086 H 944.24777 v 17.0079 H 717.47617 V 84.5086 h -226.7717 v 17.0079 H 263.93277 V 84.5086 Z"
         style="fill:none;stroke:#ff0000;stroke-width:0.28346455;stroke-linecap:round;stroke-linejoin:miter;stroke-miterlimit:10;stroke-dasharray:none;stroke-opacity:1"
         id="path9159" /><path
         inkscape:connector-curvature="0"
         id="path9155"
         d="m 1601.8857,583.4063 c 0,3.1311 -2.5383,5.6693 -5.6693,5.6693 -3.1311,0 -5.6693,-2.5382 -5.6693,-5.6693 0,-3.1311 2.5382,-5.6693 5.6693,-5.6693 3.131,0 5.6693,2.5382 5.6693,5.6693 z"
         style="fill:none;stroke:#ff0000;stroke-width:0.28346455;stroke-linecap:round;stroke-linejoin:miter;stroke-miterlimit:10;stroke-dasharray:none;stroke-opacity:1"
         sodipodi:nodetypes="ssscs" /><path
         inkscape:connector-curvature="0"
         id="path9153"
         d="m 1601.8857,441.6741 c 0,3.1311 -2.5383,5.6693 -5.6693,5.6693 -3.1311,0 -5.6693,-2.5382 -5.6693,-5.6693 0,-3.1311 2.5382,-5.6693 5.6693,-5.6693 3.131,0 5.6693,2.5382 5.6693,5.6693 z"
         style="fill:none;stroke:#ff0000;stroke-width:0.28346455;stroke-linecap:round;stroke-linejoin:miter;stroke-miterlimit:10;stroke-dasharray:none;stroke-opacity:1"
         sodipodi:nodetypes="ssscs" /><path
         inkscape:connector-curvature="0"
         id="path9151"
         d="m 1601.8857,299.9417 c 0,3.131 -2.5383,5.6693 -5.6693,5.6693 -3.1311,0 -5.6693,-2.5383 -5.6693,-5.6693 0,-3.1311 2.5382,-5.6693 5.6693,-5.6693 3.131,0 5.6693,2.5382 5.6693,5.6693 z"
         style="fill:none;stroke:#ff0000;stroke-width:0.28346455;stroke-linecap:round;stroke-linejoin:miter;stroke-miterlimit:10;stroke-dasharray:none;stroke-opacity:1"
         sodipodi:nodetypes="ssscs" /><path
         inkscape:connector-curvature="0"
         id="path9149"
         d="m 1601.8857,158.2095 c 0,3.1311 -2.5383,5.6693 -5.6693,5.6693 -3.1311,0 -5.6693,-2.5382 -5.6693,-5.6693 0,-3.1311 2.5382,-5.6693 5.6693,-5.6693 3.131,0 5.6693,2.5382 5.6693,5.6693 z"
         style="fill:none;stroke:#ff0000;stroke-width:0.28346455;stroke-linecap:round;stroke-linejoin:miter;stroke-miterlimit:10;stroke-dasharray:none;stroke-opacity:1"
         sodipodi:nodetypes="ssscs" /><path
         inkscape:connector-curvature="0"
         id="path9147"
         d="m 1460.1534,583.4063 c 0,3.1311 -2.5383,5.6693 -5.6693,5.6693 -3.1311,0 -5.6693,-2.5382 -5.6693,-5.6693 0,-3.1311 2.5382,-5.6693 5.6693,-5.6693 3.131,0 5.6693,2.5382 5.6693,5.6693 z"
         style="fill:none;stroke:#ff0000;stroke-width:0.28346455;stroke-linecap:round;stroke-linejoin:miter;stroke-miterlimit:10;stroke-dasharray:none;stroke-opacity:1"
         sodipodi:nodetypes="ssscs" /><path
         inkscape:connector-curvature="0"
         id="path9145"
         d="m 1460.1534,441.6741 c 0,3.1311 -2.5383,5.6693 -5.6693,5.6693 -3.1311,0 -5.6693,-2.5382 -5.6693,-5.6693 0,-3.1311 2.5382,-5.6693 5.6693,-5.6693 3.131,0 5.6693,2.5382 5.6693,5.6693 z"
         style="fill:none;stroke:#ff0000;stroke-width:0.28346455;stroke-linecap:round;stroke-linejoin:miter;stroke-miterlimit:10;stroke-dasharray:none;stroke-opacity:1"
         sodipodi:nodetypes="ssscs" /><path
         inkscape:connector-curvature="0"
         id="path9143"
         d="m 1460.1534,299.9417 c 0,3.131 -2.5383,5.6693 -5.6693,5.6693 -3.1311,0 -5.6693,-2.5383 -5.6693,-5.6693 0,-3.1311 2.5382,-5.6693 5.6693,-5.6693 3.131,0 5.6693,2.5382 5.6693,5.6693 z"
         style="fill:none;stroke:#ff0000;stroke-width:0.28346455;stroke-linecap:round;stroke-linejoin:miter;stroke-miterlimit:10;stroke-dasharray:none;stroke-opacity:1"
         sodipodi:nodetypes="ssscs" /><path
         inkscape:connector-curvature="0"
         id="path9141"
         d="m 1460.1534,158.2095 c 0,3.1311 -2.5383,5.6693 -5.6693,5.6693 -3.1311,0 -5.6693,-2.5382 -5.6693,-5.6693 0,-3.1311 2.5382,-5.6693 5.6693,-5.6693 3.131,0 5.6693,2.5382 5.6693,5.6693 z"
         style="fill:none;stroke:#ff0000;stroke-width:0.28346455;stroke-linecap:round;stroke-linejoin:miter;stroke-miterlimit:10;stroke-dasharray:none;stroke-opacity:1"
         sodipodi:nodetypes="ssscs" /><path
         inkscape:connector-curvature="0"
         id="path9139"
         d="m 1318.4211,583.4063 c 0,3.1311 -2.5383,5.6693 -5.6693,5.6693 -3.1311,0 -5.6693,-2.5382 -5.6693,-5.6693 0,-3.1311 2.5382,-5.6693 5.6693,-5.6693 3.131,0 5.6693,2.5382 5.6693,5.6693 z"
         style="fill:none;stroke:#ff0000;stroke-width:0.28346455;stroke-linecap:round;stroke-linejoin:miter;stroke-miterlimit:10;stroke-dasharray:none;stroke-opacity:1"
         sodipodi:nodetypes="ssscs" /><path
         inkscape:connector-curvature="0"
         id="path9137"
         d="m 1318.4211,441.6741 c 0,3.1311 -2.5383,5.6693 -5.6693,5.6693 -3.1311,0 -5.6693,-2.5382 -5.6693,-5.6693 0,-3.1311 2.5382,-5.6693 5.6693,-5.6693 3.131,0 5.6693,2.5382 5.6693,5.6693 z"
         style="fill:none;stroke:#ff0000;stroke-width:0.28346455;stroke-linecap:round;stroke-linejoin:miter;stroke-miterlimit:10;stroke-dasharray:none;stroke-opacity:1"
         sodipodi:nodetypes="ssscs" /><path
         inkscape:connector-curvature="0"
         id="path9135"
         d="m 1318.4211,299.9417 c 0,3.131 -2.5383,5.6693 -5.6693,5.6693 -3.1311,0 -5.6693,-2.5383 -5.6693,-5.6693 0,-3.1311 2.5382,-5.6693 5.6693,-5.6693 3.131,0 5.6693,2.5382 5.6693,5.6693 z"
         style="fill:none;stroke:#ff0000;stroke-width:0.28346455;stroke-linecap:round;stroke-linejoin:miter;stroke-miterlimit:10;stroke-dasharray:none;stroke-opacity:1"
         sodipodi:nodetypes="ssscs" /><path
         inkscape:connector-curvature="0"
         id="path9133"
         d="m 1318.4211,158.2095 c 0,3.1311 -2.5383,5.6693 -5.6693,5.6693 -3.1311,0 -5.6693,-2.5382 -5.6693,-5.6693 0,-3.1311 2.5382,-5.6693 5.6693,-5.6693 3.131,0 5.6693,2.5382 5.6693,5.6693 z"
         style="fill:none;stroke:#ff0000;stroke-width:0.28346455;stroke-linecap:round;stroke-linejoin:miter;stroke-miterlimit:10;stroke-dasharray:none;stroke-opacity:1"
         sodipodi:nodetypes="ssscs" /><path
         inkscape:connector-curvature="0"
         id="path9131"
         d="m 1176.6887,583.4063 c 0,3.1311 -2.5382,5.6693 -5.6692,5.6693 -3.1311,0 -5.6693,-2.5382 -5.6693,-5.6693 0,-3.1311 2.5382,-5.6693 5.6693,-5.6693 3.131,0 5.6692,2.5382 5.6692,5.6693 z"
         style="fill:none;stroke:#ff0000;stroke-width:0.28346455;stroke-linecap:round;stroke-linejoin:miter;stroke-miterlimit:10;stroke-dasharray:none;stroke-opacity:1"
         sodipodi:nodetypes="ssscs" /><path
         inkscape:connector-curvature="0"
         id="path9129"
         d="m 1176.6887,441.6741 c 0,3.1311 -2.5382,5.6693 -5.6692,5.6693 -3.1311,0 -5.6693,-2.5382 -5.6693,-5.6693 0,-3.1311 2.5382,-5.6693 5.6693,-5.6693 3.131,0 5.6692,2.5382 5.6692,5.6693 z"
         style="fill:none;stroke:#ff0000;stroke-width:0.28346455;stroke-linecap:round;stroke-linejoin:miter;stroke-miterlimit:10;stroke-dasharray:none;stroke-opacity:1"
         sodipodi:nodetypes="ssscs" /><path
         inkscape:connector-curvature="0"
         id="path9127"
         d="m 1176.6887,299.9417 c 0,3.131 -2.5382,5.6693 -5.6692,5.6693 -3.1311,0 -5.6693,-2.5383 -5.6693,-5.6693 0,-3.1311 2.5382,-5.6693 5.6693,-5.6693 3.131,0 5.6692,2.5382 5.6692,5.6693 z"
         style="fill:none;stroke:#ff0000;stroke-width:0.28346455;stroke-linecap:round;stroke-linejoin:miter;stroke-miterlimit:10;stroke-dasharray:none;stroke-opacity:1"
         sodipodi:nodetypes="ssscs" /><path
         inkscape:connector-curvature="0"
         id="path9125"
         d="m 1176.6887,158.2095 c 0,3.1311 -2.5382,5.6693 -5.6692,5.6693 -3.1311,0 -5.6693,-2.5382 -5.6693,-5.6693 0,-3.1311 2.5382,-5.6693 5.6693,-5.6693 3.131,0 5.6692,2.5382 5.6692,5.6693 z"
         style="fill:none;stroke:#ff0000;stroke-width:0.28346455;stroke-linecap:round;stroke-linejoin:miter;stroke-miterlimit:10;stroke-dasharray:none;stroke-opacity:1"
         sodipodi:nodetypes="ssscs" /><path
         inkscape:connector-curvature="0"
         id="path9123"
         d="m 1034.9564,583.4063 c 0,3.1311 -2.5382,5.6693 -5.6693,5.6693 -3.131,0 -5.6692,-2.5382 -5.6692,-5.6693 0,-3.1311 2.5382,-5.6693 5.6692,-5.6693 3.1311,0 5.6693,2.5382 5.6693,5.6693 z"
         style="fill:none;stroke:#ff0000;stroke-width:0.28346455;stroke-linecap:round;stroke-linejoin:miter;stroke-miterlimit:10;stroke-dasharray:none;stroke-opacity:1"
         sodipodi:nodetypes="ssscs" /><path
         inkscape:connector-curvature="0"
         id="path9121"
         d="m 1034.9564,441.6741 c 0,3.1311 -2.5382,5.6693 -5.6693,5.6693 -3.131,0 -5.6692,-2.5382 -5.6692,-5.6693 0,-3.1311 2.5382,-5.6693 5.6692,-5.6693 3.1311,0 5.6693,2.5382 5.6693,5.6693 z"
         style="fill:none;stroke:#ff0000;stroke-width:0.28346455;stroke-linecap:round;stroke-linejoin:miter;stroke-miterlimit:10;stroke-dasharray:none;stroke-opacity:1"
         sodipodi:nodetypes="ssscs" /><path
         inkscape:connector-curvature="0"
         id="path9119"
         d="m 1034.9564,299.9417 c 0,3.131 -2.5382,5.6693 -5.6693,5.6693 -3.131,0 -5.6692,-2.5383 -5.6692,-5.6693 0,-3.1311 2.5382,-5.6693 5.6692,-5.6693 3.1311,0 5.6693,2.5382 5.6693,5.6693 z"
         style="fill:none;stroke:#ff0000;stroke-width:0.28346455;stroke-linecap:round;stroke-linejoin:miter;stroke-miterlimit:10;stroke-dasharray:none;stroke-opacity:1"
         sodipodi:nodetypes="ssscs" /><path
         inkscape:connector-curvature="0"
         id="path9117"
         d="m 1034.9564,158.2095 c 0,3.1311 -2.5382,5.6693 -5.6693,5.6693 -3.131,0 -5.6692,-2.5382 -5.6692,-5.6693 0,-3.1311 2.5382,-5.6693 5.6692,-5.6693 3.1311,0 5.6693,2.5382 5.6693,5.6693 z"
         style="fill:none;stroke:#ff0000;stroke-width:0.28346455;stroke-linecap:round;stroke-linejoin:miter;stroke-miterlimit:10;stroke-dasharray:none;stroke-opacity:1"
         sodipodi:nodetypes="ssscs" /><path
         inkscape:connector-curvature="0"
         id="path9115"
         d="m 893.22417,583.4063 c 0,3.1311 -2.5382,5.6693 -5.6692,5.6693 -3.1311,0 -5.6693,-2.5382 -5.6693,-5.6693 0,-3.1311 2.5382,-5.6693 5.6693,-5.6693 3.131,0 5.6692,2.5382 5.6692,5.6693 z"
         style="fill:none;stroke:#ff0000;stroke-width:0.28346455;stroke-linecap:round;stroke-linejoin:miter;stroke-miterlimit:10;stroke-dasharray:none;stroke-opacity:1"
         sodipodi:nodetypes="ssscs" /><path
         inkscape:connector-curvature="0"
         id="path9113"
         d="m 893.22417,441.6741 c 0,3.1311 -2.5382,5.6693 -5.6692,5.6693 -3.1311,0 -5.6693,-2.5382 -5.6693,-5.6693 0,-3.1311 2.5382,-5.6693 5.6693,-5.6693 3.131,0 5.6692,2.5382 5.6692,5.6693 z"
         style="fill:none;stroke:#ff0000;stroke-width:0.28346455;stroke-linecap:round;stroke-linejoin:miter;stroke-miterlimit:10;stroke-dasharray:none;stroke-opacity:1"
         sodipodi:nodetypes="ssscs" /><path
         inkscape:connector-curvature="0"
         id="path9111"
         d="m 893.22417,299.9417 c 0,3.131 -2.5382,5.6693 -5.6692,5.6693 -3.1311,0 -5.6693,-2.5383 -5.6693,-5.6693 0,-3.1311 2.5382,-5.6693 5.6693,-5.6693 3.131,0 5.6692,2.5382 5.6692,5.6693 z"
         style="fill:none;stroke:#ff0000;stroke-width:0.28346455;stroke-linecap:round;stroke-linejoin:miter;stroke-miterlimit:10;stroke-dasharray:none;stroke-opacity:1"
         sodipodi:nodetypes="ssscs" /><path
         inkscape:connector-curvature="0"
         id="path9109"
         d="m 893.22417,158.2095 c 0,3.1311 -2.5382,5.6693 -5.6692,5.6693 -3.1311,0 -5.6693,-2.5382 -5.6693,-5.6693 0,-3.1311 2.5382,-5.6693 5.6693,-5.6693 3.131,0 5.6692,2.5382 5.6692,5.6693 z"
         style="fill:none;stroke:#ff0000;stroke-width:0.28346455;stroke-linecap:round;stroke-linejoin:miter;stroke-miterlimit:10;stroke-dasharray:none;stroke-opacity:1"
         sodipodi:nodetypes="ssscs" /><path
         inkscape:connector-curvature="0"
         id="path9107"
         d="m 751.49187,583.4063 c 0,3.1311 -2.5382,5.6693 -5.6693,5.6693 -3.131,0 -5.6692,-2.5382 -5.6692,-5.6693 0,-3.1311 2.5382,-5.6693 5.6692,-5.6693 3.1311,0 5.6693,2.5382 5.6693,5.6693 z"
         style="fill:none;stroke:#ff0000;stroke-width:0.28346455;stroke-linecap:round;stroke-linejoin:miter;stroke-miterlimit:10;stroke-dasharray:none;stroke-opacity:1"
         sodipodi:nodetypes="ssscs" /><path
         inkscape:connector-curvature="0"
         id="path9105"
         d="m 751.49187,441.6741 c 0,3.1311 -2.5382,5.6693 -5.6693,5.6693 -3.131,0 -5.6692,-2.5382 -5.6692,-5.6693 0,-3.1311 2.5382,-5.6693 5.6692,-5.6693 3.1311,0 5.6693,2.5382 5.6693,5.6693 z"
         style="fill:none;stroke:#ff0000;stroke-width:0.28346455;stroke-linecap:round;stroke-linejoin:miter;stroke-miterlimit:10;stroke-dasharray:none;stroke-opacity:1"
         sodipodi:nodetypes="ssscs" /><path
         inkscape:connector-curvature="0"
         id="path9103"
         d="m 751.49187,299.9417 c 0,3.131 -2.5382,5.6693 -5.6693,5.6693 -3.131,0 -5.6692,-2.5383 -5.6692,-5.6693 0,-3.1311 2.5382,-5.6693 5.6692,-5.6693 3.1311,0 5.6693,2.5382 5.6693,5.6693 z"
         style="fill:none;stroke:#ff0000;stroke-width:0.28346455;stroke-linecap:round;stroke-linejoin:miter;stroke-miterlimit:10;stroke-dasharray:none;stroke-opacity:1"
         sodipodi:nodetypes="ssscs" /><path
         inkscape:connector-curvature="0"
         id="path9101"
         d="m 751.49187,158.2095 c 0,3.1311 -2.5382,5.6693 -5.6693,5.6693 -3.131,0 -5.6692,-2.5382 -5.6692,-5.6693 0,-3.1311 2.5382,-5.6693 5.6692,-5.6693 3.1311,0 5.6693,2.5382 5.6693,5.6693 z"
         style="fill:none;stroke:#ff0000;stroke-width:0.28346455;stroke-linecap:round;stroke-linejoin:miter;stroke-miterlimit:10;stroke-dasharray:none;stroke-opacity:1"
         sodipodi:nodetypes="ssscs" /><path
         inkscape:connector-curvature="0"
         id="path9099"
         d="m 609.75957,583.4063 c 0,3.1311 -2.5382,5.6693 -5.6693,5.6693 -3.131,0 -5.6693,-2.5382 -5.6693,-5.6693 0,-3.1311 2.5383,-5.6693 5.6693,-5.6693 3.1311,0 5.6693,2.5382 5.6693,5.6693 z"
         style="fill:none;stroke:#ff0000;stroke-width:0.28346455;stroke-linecap:round;stroke-linejoin:miter;stroke-miterlimit:10;stroke-dasharray:none;stroke-opacity:1"
         sodipodi:nodetypes="ssscs" /><path
         inkscape:connector-curvature="0"
         id="path9097"
         d="m 609.75957,441.6741 c 0,3.1311 -2.5382,5.6693 -5.6693,5.6693 -3.131,0 -5.6693,-2.5382 -5.6693,-5.6693 0,-3.1311 2.5383,-5.6693 5.6693,-5.6693 3.1311,0 5.6693,2.5382 5.6693,5.6693 z"
         style="fill:none;stroke:#ff0000;stroke-width:0.28346455;stroke-linecap:round;stroke-linejoin:miter;stroke-miterlimit:10;stroke-dasharray:none;stroke-opacity:1"
         sodipodi:nodetypes="ssscs" /><path
         inkscape:connector-curvature="0"
         id="path9095"
         d="m 609.75957,299.9417 c 0,3.131 -2.5382,5.6693 -5.6693,5.6693 -3.131,0 -5.6693,-2.5383 -5.6693,-5.6693 0,-3.1311 2.5383,-5.6693 5.6693,-5.6693 3.1311,0 5.6693,2.5382 5.6693,5.6693 z"
         style="fill:none;stroke:#ff0000;stroke-width:0.28346455;stroke-linecap:round;stroke-linejoin:miter;stroke-miterlimit:10;stroke-dasharray:none;stroke-opacity:1"
         sodipodi:nodetypes="ssscs" /><path
         inkscape:connector-curvature="0"
         id="path9093"
         d="m 609.75957,158.2095 c 0,3.1311 -2.5382,5.6693 -5.6693,5.6693 -3.131,0 -5.6693,-2.5382 -5.6693,-5.6693 0,-3.1311 2.5383,-5.6693 5.6693,-5.6693 3.1311,0 5.6693,2.5382 5.6693,5.6693 z"
         style="fill:none;stroke:#ff0000;stroke-width:0.28346455;stroke-linecap:round;stroke-linejoin:miter;stroke-miterlimit:10;stroke-dasharray:none;stroke-opacity:1"
         sodipodi:nodetypes="ssscs" /><path
         inkscape:connector-curvature="0"
         id="path9091"
         d="m 468.02727,583.4063 c 0,3.1311 -2.5382,5.6693 -5.6693,5.6693 -3.131,0 -5.6693,-2.5382 -5.6693,-5.6693 0,-3.1311 2.5383,-5.6693 5.6693,-5.6693 3.1311,0 5.6693,2.5382 5.6693,5.6693 z"
         style="fill:none;stroke:#ff0000;stroke-width:0.28346455;stroke-linecap:round;stroke-linejoin:miter;stroke-miterlimit:10;stroke-dasharray:none;stroke-opacity:1"
         sodipodi:nodetypes="ssscs" /><path
         inkscape:connector-curvature="0"
         id="path9089"
         d="m 468.02727,441.6741 c 0,3.1311 -2.5382,5.6693 -5.6693,5.6693 -3.131,0 -5.6693,-2.5382 -5.6693,-5.6693 0,-3.1311 2.5383,-5.6693 5.6693,-5.6693 3.1311,0 5.6693,2.5382 5.6693,5.6693 z"
         style="fill:none;stroke:#ff0000;stroke-width:0.28346455;stroke-linecap:round;stroke-linejoin:miter;stroke-miterlimit:10;stroke-dasharray:none;stroke-opacity:1"
         sodipodi:nodetypes="ssscs" /><path
         inkscape:connector-curvature="0"
         id="path9087"
         d="m 468.02727,299.9417 c 0,3.131 -2.5382,5.6693 -5.6693,5.6693 -3.131,0 -5.6693,-2.5383 -5.6693,-5.6693 0,-3.1311 2.5383,-5.6693 5.6693,-5.6693 3.1311,0 5.6693,2.5382 5.6693,5.6693 z"
         style="fill:none;stroke:#ff0000;stroke-width:0.28346455;stroke-linecap:round;stroke-linejoin:miter;stroke-miterlimit:10;stroke-dasharray:none;stroke-opacity:1"
         sodipodi:nodetypes="ssscs" /><path
         inkscape:connector-curvature="0"
         id="path9085"
         d="m 468.02727,158.2095 c 0,3.1311 -2.5382,5.6693 -5.6693,5.6693 -3.131,0 -5.6693,-2.5382 -5.6693,-5.6693 0,-3.1311 2.5383,-5.6693 5.6693,-5.6693 3.1311,0 5.6693,2.5382 5.6693,5.6693 z"
         style="fill:none;stroke:#ff0000;stroke-width:0.28346455;stroke-linecap:round;stroke-linejoin:miter;stroke-miterlimit:10;stroke-dasharray:none;stroke-opacity:1"
         sodipodi:nodetypes="ssscs" /><path
         inkscape:connector-curvature="0"
         id="path9083"
         d="m 326.29507,583.4063 c 0,3.1311 -2.5383,5.6693 -5.6693,5.6693 -3.1311,0 -5.6693,-2.5382 -5.6693,-5.6693 0,-3.1311 2.5382,-5.6693 5.6693,-5.6693 3.131,0 5.6693,2.5382 5.6693,5.6693 z"
         style="fill:none;stroke:#ff0000;stroke-width:0.28346455;stroke-linecap:round;stroke-linejoin:miter;stroke-miterlimit:10;stroke-dasharray:none;stroke-opacity:1"
         sodipodi:nodetypes="ssscs" /><path
         inkscape:connector-curvature="0"
         id="path9081"
         d="m 326.29507,441.6741 c 0,3.1311 -2.5383,5.6693 -5.6693,5.6693 -3.1311,0 -5.6693,-2.5382 -5.6693,-5.6693 0,-3.1311 2.5382,-5.6693 5.6693,-5.6693 3.131,0 5.6693,2.5382 5.6693,5.6693 z"
         style="fill:none;stroke:#ff0000;stroke-width:0.28346455;stroke-linecap:round;stroke-linejoin:miter;stroke-miterlimit:10;stroke-dasharray:none;stroke-opacity:1"
         sodipodi:nodetypes="ssscs" /><path
         inkscape:connector-curvature="0"
         id="path9079"
         d="m 326.29507,299.9417 c 0,3.131 -2.5383,5.6693 -5.6693,5.6693 -3.1311,0 -5.6693,-2.5383 -5.6693,-5.6693 0,-3.1311 2.5382,-5.6693 5.6693,-5.6693 3.131,0 5.6693,2.5382 5.6693,5.6693 z"
         style="fill:none;stroke:#ff0000;stroke-width:0.28346455;stroke-linecap:round;stroke-linejoin:miter;stroke-miterlimit:10;stroke-dasharray:none;stroke-opacity:1"
         sodipodi:nodetypes="ssscs" /><path
         inkscape:connector-curvature="0"
         id="path9077"
         d="m 326.29507,158.2095 c 0,3.1311 -2.5383,5.6693 -5.6693,5.6693 -3.1311,0 -5.6693,-2.5382 -5.6693,-5.6693 0,-3.1311 2.5382,-5.6693 5.6693,-5.6693 3.131,0 5.6693,2.5382 5.6693,5.6693 z"
         style="fill:none;stroke:#ff0000;stroke-width:0.28346455;stroke-linecap:round;stroke-linejoin:miter;stroke-miterlimit:10;stroke-dasharray:none;stroke-opacity:1"
         sodipodi:nodetypes="ssscs" /><path
         inkscape:connector-curvature="0"
         id="path9075"
         d="m 184.56277,583.4063 c 0,3.1311 -2.5383,5.6693 -5.6693,5.6693 -3.1311,0 -5.6693,-2.5382 -5.6693,-5.6693 0,-3.1311 2.5382,-5.6693 5.6693,-5.6693 3.131,0 5.6693,2.5382 5.6693,5.6693 z"
         style="fill:none;stroke:#ff0000;stroke-width:0.28346455;stroke-linecap:round;stroke-linejoin:miter;stroke-miterlimit:10;stroke-dasharray:none;stroke-opacity:1"
         sodipodi:nodetypes="ssscs" /><path
         inkscape:connector-curvature="0"
         id="path9073"
         d="m 184.56277,441.6741 c 0,3.1311 -2.5383,5.6693 -5.6693,5.6693 -3.1311,0 -5.6693,-2.5382 -5.6693,-5.6693 0,-3.1311 2.5382,-5.6693 5.6693,-5.6693 3.131,0 5.6693,2.5382 5.6693,5.6693 z"
         style="fill:none;stroke:#ff0000;stroke-width:0.28346455;stroke-linecap:round;stroke-linejoin:miter;stroke-miterlimit:10;stroke-dasharray:none;stroke-opacity:1"
         sodipodi:nodetypes="ssscs" /><path
         inkscape:connector-curvature="0"
         id="path9071"
         d="m 184.56277,299.9417 c 0,3.131 -2.5383,5.6693 -5.6693,5.6693 -3.1311,0 -5.6693,-2.5383 -5.6693,-5.6693 0,-3.1311 2.5382,-5.6693 5.6693,-5.6693 3.131,0 5.6693,2.5382 5.6693,5.6693 z"
         style="fill:none;stroke:#ff0000;stroke-width:0.28346455;stroke-linecap:round;stroke-linejoin:miter;stroke-miterlimit:10;stroke-dasharray:none;stroke-opacity:1"
         sodipodi:nodetypes="ssscs" /><path
         inkscape:connector-curvature="0"
         id="path7074"
         d="m 184.56277,158.2095 c 0,3.1311 -2.5383,5.6693 -5.6693,5.6693 -3.1311,0 -5.6693,-2.5382 -5.6693,-5.6693 0,-3.1311 2.5382,-5.6693 5.6693,-5.6693 3.131,0 5.6693,2.5382 5.6693,5.6693 z"
         style="fill:none;stroke:#ff0000;stroke-width:0.28346455;stroke-linecap:round;stroke-linejoin:miter;stroke-miterlimit:10;stroke-dasharray:none;stroke-opacity:1"
         sodipodi:nodetypes="ssscs" /><flowRoot
         xml:space="preserve"
         id="flowRoot10406"
         style="font-style:normal;font-weight:normal;font-size:85.33333387px;line-height:2.25;font-family:sans-serif;letter-spacing:0px;word-spacing:0px;fill:none;fill-opacity:1;stroke:#0000ff;stroke-opacity:1;"
         transform="matrix(0.74999998,0,0,-0.74999998,0,850.39382)"><flowRegion
           id="flowRegion10408"
           style="line-height:2.25;font-size:85.33333387px;fill:none;stroke:#0000ff;stroke-opacity:1;"><rect
             id="rect10410"
             width="276"
             height="272"
             x="126"
             y="219.85828"
             style="font-size:85.33333387px;line-height:2.25;fill:none;stroke:#0000ff;stroke-opacity:1;" /></flowRegion><flowPara
           id="flowPara10412">2</flowPara></flowRoot></g></g></svg>