<?xml version="1.0" encoding="UTF-8" standalone="no"?>
<!-- Created with Inkscape (http://www.inkscape.org/) -->

<svg
   xmlns:dc="http://purl.org/dc/elements/1.1/"
   xmlns:cc="http://creativecommons.org/ns#"
   xmlns:rdf="http://www.w3.org/1999/02/22-rdf-syntax-ns#"
   xmlns:svg="http://www.w3.org/2000/svg"
   xmlns="http://www.w3.org/2000/svg"
   xmlns:sodipodi="http://sodipodi.sourceforge.net/DTD/sodipodi-0.dtd"
   xmlns:inkscape="http://www.inkscape.org/namespaces/inkscape"
   version="1.1"
   id="svg6612"
   xml:space="preserve"
   width="600mm"
   height="300mm"
   viewBox="0 0 2267.7165 1133.8582"
   sodipodi:docname="Back plate 1 en 7ML.svg"
   inkscape:version="0.92.4 (5da689c313, 2019-01-14)"><metadata
     id="metadata6618"><rdf:RDF><cc:Work
         rdf:about=""><dc:format>image/svg+xml</dc:format><dc:type
           rdf:resource="http://purl.org/dc/dcmitype/StillImage" /><dc:title /></cc:Work></rdf:RDF></metadata><defs
     id="defs6616" /><sodipodi:namedview
     pagecolor="#ffffff"
     bordercolor="#666666"
     borderopacity="1"
     objecttolerance="10"
     gridtolerance="10"
     guidetolerance="10"
     inkscape:pageopacity="0"
     inkscape:pageshadow="2"
     inkscape:window-width="1920"
     inkscape:window-height="1017"
     id="namedview6614"
     showgrid="false"
     units="mm"
     inkscape:document-units="mm"
     inkscape:zoom="0.20458984"
     inkscape:cx="695.44559"
     inkscape:cy="-116.96435"
     inkscape:window-x="-8"
     inkscape:window-y="-8"
     inkscape:window-maximized="1"
     inkscape:current-layer="g6620" /><g
     id="g6620"
     inkscape:groupmode="layer"
     inkscape:label="frame"
     transform="matrix(1.3333333,0,0,-1.3333333,0,1133.8584)"><flowRoot
       xml:space="preserve"
       id="flowRoot14977"
       style="fill:black;fill-opacity:1;stroke:#ff0000;font-family:sans-serif;font-style:normal;font-weight:normal;font-size:40px;line-height:1.25;letter-spacing:0px;word-spacing:0px;stroke-opacity:1;stroke-width:0.28346456;stroke-miterlimit:9.21052647;stroke-dasharray:none"><flowRegion
         id="flowRegion14979"
         style="stroke:#ff0000;stroke-opacity:1;stroke-width:0.28346456;stroke-miterlimit:9.21052647;stroke-dasharray:none"><rect
           id="rect14981"
           width="114.84435"
           height="114.67413"
           x="112"
           y="193.85828"
           style="stroke:#ff0000;stroke-opacity:1;stroke-width:0.28346456;stroke-miterlimit:9.21052647;stroke-dasharray:none" /></flowRegion><flowPara
         id="flowPara14983" /></flowRoot><flowRoot
       xml:space="preserve"
       id="flowRoot14985"
       style="fill:black;fill-opacity:1;stroke:#ff0000;font-family:sans-serif;font-style:normal;font-weight:normal;font-size:85.33333333px;line-height:1.25;letter-spacing:0px;word-spacing:0px;stroke-opacity:1;stroke-width:0.28346456;stroke-miterlimit:9.21052647;stroke-dasharray:none"><flowRegion
         id="flowRegion14987"
         style="font-size:85.33333333px;stroke:#ff0000;stroke-opacity:1;stroke-width:0.28346456;stroke-miterlimit:9.21052647;stroke-dasharray:none"><rect
           id="rect14989"
           width="200"
           height="148"
           x="92"
           y="197.85828"
           style="font-size:85.33333333px;stroke:#ff0000;stroke-opacity:1;stroke-width:0.28346456;stroke-miterlimit:9.21052647;stroke-dasharray:none" /></flowRegion><flowPara
         id="flowPara14991" /></flowRoot><flowRoot
       xml:space="preserve"
       id="flowRoot20647"
       style="fill:black;fill-opacity:1;stroke:#ff0000;font-family:sans-serif;font-style:normal;font-weight:normal;font-size:42.66666667px;line-height:1.25;letter-spacing:0px;word-spacing:0px;stroke-opacity:1;stroke-width:0.28346456;stroke-miterlimit:9.21052647;stroke-dasharray:none"><flowRegion
         id="flowRegion20649"
         style="font-size:42.66666667px;stroke:#ff0000;stroke-opacity:1;stroke-width:0.28346456;stroke-miterlimit:9.21052647;stroke-dasharray:none"><rect
           id="rect20651"
           width="362.15842"
           height="433.37076"
           x="110.30865"
           y="59.055973"
           style="font-size:42.66666667px;stroke:#ff0000;stroke-opacity:1;stroke-width:0.28346456;stroke-miterlimit:9.21052647;stroke-dasharray:none" /></flowRegion><flowPara
         id="flowPara20653" /></flowRoot><flowRoot
       xml:space="preserve"
       id="flowRoot20663"
       style="fill:black;fill-opacity:1;stroke:#ff0000;font-family:sans-serif;font-style:normal;font-weight:normal;font-size:40px;line-height:1.25;letter-spacing:0px;word-spacing:0px;stroke-opacity:1;stroke-width:0.28346456;stroke-miterlimit:9.21052647;stroke-dasharray:none"><flowRegion
         id="flowRegion20665"
         style="stroke:#ff0000;stroke-opacity:1;stroke-width:0.28346456;stroke-miterlimit:9.21052647;stroke-dasharray:none"><rect
           id="rect20667"
           width="157.24007"
           height="170.1286"
           x="-48.976414"
           y="-424.36499"
           style="stroke:#ff0000;stroke-opacity:1;stroke-width:0.28346456;stroke-miterlimit:9.21052647;stroke-dasharray:none" /></flowRegion><flowPara
         id="flowPara20669" /></flowRoot><path
       style="fill:none;stroke:#ff0000;stroke-width:0.28346455;stroke-linecap:round;stroke-linejoin:miter;stroke-miterlimit:9.21052647;stroke-dasharray:none;stroke-opacity:1"
       d="m 1038.6494,653.10072 c 3.1311,0 5.6693,2.5382 5.6693,5.6693 0,3.1311 -2.5382,5.6693 -5.6693,5.6693 -3.1311,0 -5.6693,-2.5382 -5.6693,-5.6693 0,-3.1311 2.5382,-5.6693 5.6693,-5.6693 z"
       id="path22864"
       inkscape:connector-curvature="0"
       sodipodi:nodetypes="ssscs" /><path
       style="fill:none;stroke:#ff0000;stroke-width:0.28346455;stroke-linecap:round;stroke-linejoin:miter;stroke-miterlimit:9.21052647;stroke-dasharray:none;stroke-opacity:1"
       d="m 1180.3816,653.10072 c 3.131,0 5.6693,2.5382 5.6693,5.6693 0,3.1311 -2.5383,5.6693 -5.6693,5.6693 -3.1311,0 -5.6693,-2.5382 -5.6693,-5.6693 0,-3.1311 2.5382,-5.6693 5.6693,-5.6693 z"
       id="path22862"
       inkscape:connector-curvature="0"
       sodipodi:nodetypes="ssscs" /><path
       style="fill:none;stroke:#ff0000;stroke-width:0.28346455;stroke-linecap:round;stroke-linejoin:miter;stroke-miterlimit:9.21052647;stroke-dasharray:none;stroke-opacity:1"
       d="m 1322.114,653.10072 c 3.1311,0 5.6693,2.5382 5.6693,5.6693 0,3.1311 -2.5382,5.6693 -5.6693,5.6693 -3.1311,0 -5.6693,-2.5382 -5.6693,-5.6693 0,-3.1311 2.5382,-5.6693 5.6693,-5.6693 z"
       id="path22860"
       inkscape:connector-curvature="0"
       sodipodi:nodetypes="ssscs" /><path
       style="fill:none;stroke:#ff0000;stroke-width:0.28346455;stroke-linecap:round;stroke-linejoin:miter;stroke-miterlimit:9.21052647;stroke-dasharray:none;stroke-opacity:1"
       d="m 1463.8462,653.10072 c 3.1311,0 5.6693,2.5382 5.6693,5.6693 0,3.1311 -2.5382,5.6693 -5.6693,5.6693 -3.1311,0 -5.6693,-2.5382 -5.6693,-5.6693 0,-3.1311 2.5382,-5.6693 5.6693,-5.6693 z"
       id="path22858"
       inkscape:connector-curvature="0"
       sodipodi:nodetypes="ssscs" /><path
       style="fill:none;stroke:#ff0000;stroke-width:0.28346455;stroke-linecap:round;stroke-linejoin:miter;stroke-miterlimit:9.21052647;stroke-dasharray:none;stroke-opacity:1"
       d="m 1038.6494,511.36852 c 3.1311,0 5.6693,2.5383 5.6693,5.6693 0,3.1311 -2.5382,5.6693 -5.6693,5.6693 -3.1311,0 -5.6693,-2.5382 -5.6693,-5.6693 0,-3.131 2.5382,-5.6693 5.6693,-5.6693 z"
       id="path22834"
       inkscape:connector-curvature="0"
       sodipodi:nodetypes="ssscs" /><path
       style="fill:none;stroke:#ff0000;stroke-width:0.28346455;stroke-linecap:round;stroke-linejoin:miter;stroke-miterlimit:9.21052647;stroke-dasharray:none;stroke-opacity:1"
       d="m 1180.3816,511.36852 c 3.131,0 5.6693,2.5383 5.6693,5.6693 0,3.1311 -2.5383,5.6693 -5.6693,5.6693 -3.1311,0 -5.6693,-2.5382 -5.6693,-5.6693 0,-3.131 2.5382,-5.6693 5.6693,-5.6693 z"
       id="path22832"
       inkscape:connector-curvature="0"
       sodipodi:nodetypes="ssscs" /><path
       style="fill:none;stroke:#ff0000;stroke-width:0.28346455;stroke-linecap:round;stroke-linejoin:miter;stroke-miterlimit:9.21052647;stroke-dasharray:none;stroke-opacity:1"
       d="m 1322.114,511.36852 c 3.1311,0 5.6693,2.5383 5.6693,5.6693 0,3.1311 -2.5382,5.6693 -5.6693,5.6693 -3.1311,0 -5.6693,-2.5382 -5.6693,-5.6693 0,-3.131 2.5382,-5.6693 5.6693,-5.6693 z"
       id="path22830"
       inkscape:connector-curvature="0"
       sodipodi:nodetypes="ssscs" /><path
       style="fill:none;stroke:#ff0000;stroke-width:0.28346455;stroke-linecap:round;stroke-linejoin:miter;stroke-miterlimit:9.21052647;stroke-dasharray:none;stroke-opacity:1"
       d="m 1463.8462,511.36852 c 3.1311,0 5.6693,2.5383 5.6693,5.6693 0,3.1311 -2.5382,5.6693 -5.6693,5.6693 -3.1311,0 -5.6693,-2.5382 -5.6693,-5.6693 0,-3.131 2.5382,-5.6693 5.6693,-5.6693 z"
       id="path22828"
       inkscape:connector-curvature="0"
       sodipodi:nodetypes="ssscs" /><path
       style="fill:none;stroke:#ff0000;stroke-width:0.28346455;stroke-linecap:round;stroke-linejoin:miter;stroke-miterlimit:9.21052647;stroke-dasharray:none;stroke-opacity:1"
       d="m 1038.6494,369.63612 c 3.1311,0 5.6693,2.5382 5.6693,5.6693 0,3.1311 -2.5382,5.6693 -5.6693,5.6693 -3.1311,0 -5.6693,-2.5382 -5.6693,-5.6693 0,-3.1311 2.5382,-5.6693 5.6693,-5.6693 z"
       id="path22804"
       inkscape:connector-curvature="0"
       sodipodi:nodetypes="ssscs" /><path
       style="fill:none;stroke:#ff0000;stroke-width:0.28346455;stroke-linecap:round;stroke-linejoin:miter;stroke-miterlimit:9.21052647;stroke-dasharray:none;stroke-opacity:1"
       d="m 1180.3816,369.63612 c 3.131,0 5.6693,2.5382 5.6693,5.6693 0,3.1311 -2.5383,5.6693 -5.6693,5.6693 -3.1311,0 -5.6693,-2.5382 -5.6693,-5.6693 0,-3.1311 2.5382,-5.6693 5.6693,-5.6693 z"
       id="path22802"
       inkscape:connector-curvature="0"
       sodipodi:nodetypes="ssscs" /><path
       style="fill:none;stroke:#ff0000;stroke-width:0.28346455;stroke-linecap:round;stroke-linejoin:miter;stroke-miterlimit:9.21052647;stroke-dasharray:none;stroke-opacity:1"
       d="m 1322.114,369.63612 c 3.1311,0 5.6693,2.5382 5.6693,5.6693 0,3.1311 -2.5382,5.6693 -5.6693,5.6693 -3.1311,0 -5.6693,-2.5382 -5.6693,-5.6693 0,-3.1311 2.5382,-5.6693 5.6693,-5.6693 z"
       id="path22800"
       inkscape:connector-curvature="0"
       sodipodi:nodetypes="ssscs" /><path
       style="fill:none;stroke:#ff0000;stroke-width:0.28346455;stroke-linecap:round;stroke-linejoin:miter;stroke-miterlimit:9.21052647;stroke-dasharray:none;stroke-opacity:1"
       d="m 1463.8462,369.63612 c 3.1311,0 5.6693,2.5382 5.6693,5.6693 0,3.1311 -2.5382,5.6693 -5.6693,5.6693 -3.1311,0 -5.6693,-2.5382 -5.6693,-5.6693 0,-3.1311 2.5382,-5.6693 5.6693,-5.6693 z"
       id="path22798"
       inkscape:connector-curvature="0"
       sodipodi:nodetypes="ssscs" /><path
       style="fill:none;stroke:#ff0000;stroke-width:0.28346455;stroke-linecap:round;stroke-linejoin:miter;stroke-miterlimit:9.21052647;stroke-dasharray:none;stroke-opacity:1"
       d="m 1038.6494,227.90392 c 3.1311,0 5.6693,2.5382 5.6693,5.6693 0,3.1311 -2.5382,5.6693 -5.6693,5.6693 -3.1311,0 -5.6693,-2.5382 -5.6693,-5.6693 0,-3.1311 2.5382,-5.6693 5.6693,-5.6693 z"
       id="path22774"
       inkscape:connector-curvature="0"
       sodipodi:nodetypes="ssscs" /><path
       style="fill:none;stroke:#ff0000;stroke-width:0.28346455;stroke-linecap:round;stroke-linejoin:miter;stroke-miterlimit:9.21052647;stroke-dasharray:none;stroke-opacity:1"
       d="m 1180.3816,227.90392 c 3.131,0 5.6693,2.5382 5.6693,5.6693 0,3.1311 -2.5383,5.6693 -5.6693,5.6693 -3.1311,0 -5.6693,-2.5382 -5.6693,-5.6693 0,-3.1311 2.5382,-5.6693 5.6693,-5.6693 z"
       id="path22772"
       inkscape:connector-curvature="0"
       sodipodi:nodetypes="ssscs" /><path
       style="fill:none;stroke:#ff0000;stroke-width:0.28346455;stroke-linecap:round;stroke-linejoin:miter;stroke-miterlimit:9.21052647;stroke-dasharray:none;stroke-opacity:1"
       d="m 1322.114,227.90392 c 3.1311,0 5.6693,2.5382 5.6693,5.6693 0,3.1311 -2.5382,5.6693 -5.6693,5.6693 -3.1311,0 -5.6693,-2.5382 -5.6693,-5.6693 0,-3.1311 2.5382,-5.6693 5.6693,-5.6693 z"
       id="path22770"
       inkscape:connector-curvature="0"
       sodipodi:nodetypes="ssscs" /><path
       style="fill:none;stroke:#ff0000;stroke-width:0.28346455;stroke-linecap:round;stroke-linejoin:miter;stroke-miterlimit:9.21052647;stroke-dasharray:none;stroke-opacity:1"
       d="m 1463.8462,227.90392 c 3.1311,0 5.6693,2.5382 5.6693,5.6693 0,3.1311 -2.5382,5.6693 -5.6693,5.6693 -3.1311,0 -5.6693,-2.5382 -5.6693,-5.6693 0,-3.1311 2.5382,-5.6693 5.6693,-5.6693 z"
       id="path22768"
       inkscape:connector-curvature="0"
       sodipodi:nodetypes="ssscs" /><path
       style="fill:none;stroke:#ff0000;stroke-width:0.28346455;stroke-linecap:round;stroke-linejoin:miter;stroke-miterlimit:9.21052647;stroke-dasharray:none;stroke-opacity:1"
       d="M 981.95638,318.61272 V 108.84892 H 1152.0351 V 91.841024 h 226.7716 v 17.007896 h 226.7717 v 620.7873 h -229.804 v -17.0079 h -226.7716 v 17.0079 H 981.95638 v -184.2519 h -17.00675 v -226.7716 z"
       id="path22670"
       inkscape:connector-curvature="0"
       sodipodi:nodetypes="ccccccccccccccccc" /><flowRoot
       xml:space="preserve"
       id="flowRoot23896"
       style="fill:black;fill-opacity:1;stroke:#ff0000;font-family:sans-serif;font-style:normal;font-weight:normal;font-size:85.33333333px;line-height:1.25;letter-spacing:0px;word-spacing:0px;stroke-opacity:1;stroke-width:0.28346456;stroke-miterlimit:9.21052647;stroke-dasharray:none"><flowRegion
         id="flowRegion23898"
         style="font-size:85.33333333px;stroke:#ff0000;stroke-opacity:1;stroke-width:0.28346456;stroke-miterlimit:9.21052647;stroke-dasharray:none"><rect
           id="rect23900"
           width="385.36703"
           height="360.87885"
           x="533.58514"
           y="128.55293"
           style="font-size:85.33333333px;stroke:#ff0000;stroke-opacity:1;stroke-width:0.28346456;stroke-miterlimit:9.21052647;stroke-dasharray:none" /></flowRegion><flowPara
         id="flowPara23902" /></flowRoot><flowRoot
       xml:space="preserve"
       id="flowRoot23904"
       style="font-style:normal;font-weight:normal;font-size:85.33333588px;line-height:1.25;font-family:sans-serif;letter-spacing:0px;word-spacing:0px;fill:none;fill-opacity:1;stroke:#0000ff;stroke-width:1.13385828;stroke-miterlimit:10;stroke-dasharray:none;stroke-opacity:1;"
       transform="matrix(0,-0.74999998,-0.74999998,0,1418.2197,760.23662)"><flowRegion
         id="flowRegion23906"
         style="font-size:85.33333588px;stroke-width:1.13385828;stroke-miterlimit:10;stroke-dasharray:none;fill:none;stroke:#0000ff;stroke-opacity:1;"><rect
           id="rect23908"
           width="226"
           height="114"
           x="766"
           y="-214.14172"
           style="font-size:85.33333588px;stroke-width:1.13385828;stroke-miterlimit:10;stroke-dasharray:none;fill:none;stroke:#0000ff;stroke-opacity:1;" /></flowRegion><flowPara
         id="flowPara23910">1</flowPara></flowRoot><path
       inkscape:connector-curvature="0"
       d="m 489.1256,105.1383 h 226.7717 m 0,0 H 489.1256 m 226.7717,17.0078 v -17.0078 m -595.2757,0 H 262.354 m 226.7716,0 v 17.0078 m -226.7716,0 v -17.0078 m 680.3149,17.0078 H 715.8973 m -226.7717,0 H 262.354 m 680.3149,0 v 153.071 m 0,0 h -17.0078 m 0,0 v 226.7716 m 0,0 h 17.0078 m 0,0 V 728.7604 M 262.354,711.7525 H 120.6216 m 141.7324,17.0079 v -17.0079 m 226.7716,17.0079 H 262.354 m 226.7716,-17.0079 v 17.0079 M 715.8973,711.7525 H 489.1256 m 226.7717,17.0079 v -17.0079 m 226.7716,17.0079 H 715.8973 M 120.6216,711.7525 V 105.1383"
       style="fill:none;stroke:#ff0000;stroke-width:0.28346456;stroke-linecap:butt;stroke-linejoin:miter;stroke-miterlimit:9.21052647;stroke-dasharray:none;stroke-opacity:1"
       id="path24110" /><flowRoot
       xml:space="preserve"
       id="flowRoot24643"
       style="font-style:normal;font-weight:normal;font-size:85.33333588px;line-height:1.25;font-family:sans-serif;letter-spacing:0px;word-spacing:0px;fill:none;fill-opacity:1;stroke:#0000ff;stroke-opacity:1;"
       transform="matrix(0,-0.74999998,-0.74999998,0,394.75095,293.11163)"><flowRegion
         id="flowRegion24645"
         style="font-size:85.33333588px;fill:none;stroke:#0000ff;stroke-opacity:1;"><rect
           id="rect24647"
           width="336"
           height="374"
           x="-508"
           y="231.85828"
           style="font-size:85.33333588px;fill:none;stroke:#0000ff;stroke-opacity:1;" /></flowRegion><flowPara
         id="flowPara24649">7</flowPara></flowRoot></g></svg>