<?xml version="1.0" encoding="UTF-8" standalone="no"?>
<!-- Created with Inkscape (http://www.inkscape.org/) -->

<svg
   xmlns:dc="http://purl.org/dc/elements/1.1/"
   xmlns:cc="http://creativecommons.org/ns#"
   xmlns:rdf="http://www.w3.org/1999/02/22-rdf-syntax-ns#"
   xmlns:svg="http://www.w3.org/2000/svg"
   xmlns="http://www.w3.org/2000/svg"
   xmlns:sodipodi="http://sodipodi.sourceforge.net/DTD/sodipodi-0.dtd"
   xmlns:inkscape="http://www.inkscape.org/namespaces/inkscape"
   version="1.1"
   id="svg6612"
   xml:space="preserve"
   width="600mm"
   height="300mm"
   viewBox="0 0 2267.7165 1133.8582"
   sodipodi:docname="Back plate 4ML.svg"
   inkscape:version="0.92.4 (5da689c313, 2019-01-14)"><metadata
     id="metadata6618"><rdf:RDF><cc:Work
         rdf:about=""><dc:format>image/svg+xml</dc:format><dc:type
           rdf:resource="http://purl.org/dc/dcmitype/StillImage" /><dc:title /></cc:Work></rdf:RDF></metadata><defs
     id="defs6616" /><sodipodi:namedview
     pagecolor="#ffffff"
     bordercolor="#666666"
     borderopacity="1"
     objecttolerance="10"
     gridtolerance="10"
     guidetolerance="10"
     inkscape:pageopacity="0"
     inkscape:pageshadow="2"
     inkscape:window-width="1920"
     inkscape:window-height="1017"
     id="namedview6614"
     showgrid="false"
     units="mm"
     inkscape:document-units="mm"
     inkscape:zoom="0.31747583"
     inkscape:cx="1084.8663"
     inkscape:cy="654.3963"
     inkscape:window-x="-8"
     inkscape:window-y="-8"
     inkscape:window-maximized="1"
     inkscape:current-layer="g6620" /><g
     id="g6620"
     inkscape:groupmode="layer"
     inkscape:label="frame"
     transform="matrix(1.3333333,0,0,-1.3333333,0,1133.8584)"><flowRoot
       xml:space="preserve"
       id="flowRoot14977"
       style="fill:black;fill-opacity:1;stroke:none;font-family:sans-serif;font-style:normal;font-weight:normal;font-size:40px;line-height:1.25;letter-spacing:0px;word-spacing:0px"><flowRegion
         id="flowRegion14979"><rect
           id="rect14981"
           width="114.84435"
           height="114.67413"
           x="112"
           y="193.85828" /></flowRegion><flowPara
         id="flowPara14983" /></flowRoot><flowRoot
       xml:space="preserve"
       id="flowRoot14985"
       style="fill:black;fill-opacity:1;stroke:none;font-family:sans-serif;font-style:normal;font-weight:normal;font-size:85.33333333px;line-height:1.25;letter-spacing:0px;word-spacing:0px;"><flowRegion
         id="flowRegion14987"
         style="font-size:85.33333333px;"><rect
           id="rect14989"
           width="200"
           height="148"
           x="92"
           y="197.85828"
           style="font-size:85.33333333px;" /></flowRegion><flowPara
         id="flowPara14991" /></flowRoot><flowRoot
       xml:space="preserve"
       id="flowRoot20647"
       style="fill:black;fill-opacity:1;stroke:none;font-family:sans-serif;font-style:normal;font-weight:normal;font-size:42.66666667px;line-height:1.25;letter-spacing:0px;word-spacing:0px;"><flowRegion
         id="flowRegion20649"
         style="font-size:42.66666667px;"><rect
           id="rect20651"
           width="362.15842"
           height="433.37076"
           x="110.30865"
           y="59.055973"
           style="font-size:42.66666667px;" /></flowRegion><flowPara
         id="flowPara20653" /></flowRoot><path
       style="fill:none;stroke:#ff0000;stroke-width:0.28346455;stroke-linecap:round;stroke-linejoin:miter;stroke-miterlimit:10;stroke-dasharray:none;stroke-opacity:1"
       d="m 1674.1573,564.02271 v 0 226.7716 h -17.0079 v 45.3544 h -232.4398 v -17.0079 h -232.4421 v 17.0079 H 959.82663 v -17.0079 h -232.4409 v 17.0079 h -232.441 l 0.001,-17.0079 h -232.441 l -10e-4,17.0079 H 30.062826 v -45.3544 h 17.0079 v -226.7716 h -17.0079 v -226.7717 h 17.0079 V 110.4794 h -17.0079 l 0.0024,-89.14313 H 264.93579 V 4.32837 h 234.8707 v 17.0079 h 234.8706 V 4.32837 h 234.8707 v 17.0079 H 1204.4183 V 4.32837 h 234.8706 v 17.0079 h 217.8616 v 89.14313 h 17.0091 v 226.77161 h -17.0091 v 226.7717 z"
       id="path1038"
       inkscape:connector-curvature="0"
       sodipodi:nodetypes="ccccccccccccccccccccccccccccccccccccccccccccccc" /><path
       inkscape:connector-curvature="0"
       style="fill:none;stroke:#ff0000;stroke-width:0.28346455;stroke-linecap:round;stroke-linejoin:miter;stroke-miterlimit:10;stroke-dasharray:none;stroke-opacity:1"
       d="m 1589.118,48.1171 c 3.131,0 5.6693,2.5383 5.6693,5.6693 0,3.1311 -2.5383,5.6693 -5.6693,5.6693 -3.1311,0 -5.6693,-2.5382 -5.6693,-5.6693 0,-3.131 2.5382,-5.6693 5.6693,-5.6693 z"
       id="path982" /><path
       inkscape:connector-curvature="0"
       style="fill:none;stroke:#ff0000;stroke-width:0.28346455;stroke-linecap:round;stroke-linejoin:miter;stroke-miterlimit:10;stroke-dasharray:none;stroke-opacity:1"
       d="m 1447.3857,48.1171 c 3.131,0 5.6693,2.5383 5.6693,5.6693 0,3.1311 -2.5383,5.6693 -5.6693,5.6693 -3.1311,0 -5.6693,-2.5382 -5.6693,-5.6693 0,-3.131 2.5382,-5.6693 5.6693,-5.6693 z"
       id="path980" /><path
       inkscape:connector-curvature="0"
       style="fill:none;stroke:#ff0000;stroke-width:0.28346455;stroke-linecap:round;stroke-linejoin:miter;stroke-miterlimit:10;stroke-dasharray:none;stroke-opacity:1"
       d="m 1305.6534,48.1171 c 3.131,0 5.6693,2.5383 5.6693,5.6693 0,3.1311 -2.5383,5.6693 -5.6693,5.6693 -3.1311,0 -5.6693,-2.5382 -5.6693,-5.6693 0,-3.131 2.5382,-5.6693 5.6693,-5.6693 z"
       id="path978" /><path
       inkscape:connector-curvature="0"
       style="fill:none;stroke:#ff0000;stroke-width:0.28346455;stroke-linecap:round;stroke-linejoin:miter;stroke-miterlimit:10;stroke-dasharray:none;stroke-opacity:1"
       d="m 1163.9211,48.1171 c 3.131,0 5.6692,2.5383 5.6692,5.6693 0,3.1311 -2.5382,5.6693 -5.6692,5.6693 -3.1311,0 -5.6693,-2.5382 -5.6693,-5.6693 0,-3.131 2.5382,-5.6693 5.6693,-5.6693 z"
       id="path976" /><path
       inkscape:connector-curvature="0"
       style="fill:none;stroke:#ff0000;stroke-width:0.28346455;stroke-linecap:round;stroke-linejoin:miter;stroke-miterlimit:10;stroke-dasharray:none;stroke-opacity:1"
       d="m 1022.1887,48.1171 c 3.1311,0 5.6693,2.5383 5.6693,5.6693 0,3.1311 -2.5382,5.6693 -5.6693,5.6693 -3.131,0 -5.6692,-2.5382 -5.6692,-5.6693 0,-3.131 2.5382,-5.6693 5.6692,-5.6693 z"
       id="path974" /><path
       inkscape:connector-curvature="0"
       style="fill:none;stroke:#ff0000;stroke-width:0.28346455;stroke-linecap:round;stroke-linejoin:miter;stroke-miterlimit:10;stroke-dasharray:none;stroke-opacity:1"
       d="m 880.45663,48.1171 c 3.131,0 5.6692,2.5383 5.6692,5.6693 0,3.1311 -2.5382,5.6693 -5.6692,5.6693 -3.1311,0 -5.6693,-2.5382 -5.6693,-5.6693 0,-3.131 2.5382,-5.6693 5.6693,-5.6693 z"
       id="path972" /><path
       inkscape:connector-curvature="0"
       style="fill:none;stroke:#ff0000;stroke-width:0.28346455;stroke-linecap:round;stroke-linejoin:miter;stroke-miterlimit:10;stroke-dasharray:none;stroke-opacity:1"
       d="m 738.72423,48.1171 c 3.1311,0 5.6693,2.5383 5.6693,5.6693 0,3.1311 -2.5382,5.6693 -5.6693,5.6693 -3.131,0 -5.6692,-2.5382 -5.6692,-5.6693 0,-3.131 2.5382,-5.6693 5.6692,-5.6693 z"
       id="path970" /><path
       inkscape:connector-curvature="0"
       style="fill:none;stroke:#ff0000;stroke-width:0.28346455;stroke-linecap:round;stroke-linejoin:miter;stroke-miterlimit:10;stroke-dasharray:none;stroke-opacity:1"
       d="m 596.99193,48.1171 c 3.1311,0 5.6693,2.5383 5.6693,5.6693 0,3.1311 -2.5382,5.6693 -5.6693,5.6693 -3.131,0 -5.6693,-2.5382 -5.6693,-5.6693 0,-3.131 2.5383,-5.6693 5.6693,-5.6693 z"
       id="path968" /><path
       inkscape:connector-curvature="0"
       style="fill:none;stroke:#ff0000;stroke-width:0.28346455;stroke-linecap:round;stroke-linejoin:miter;stroke-miterlimit:10;stroke-dasharray:none;stroke-opacity:1"
       d="m 455.25963,48.1171 c 3.1311,0 5.6693,2.5383 5.6693,5.6693 0,3.1311 -2.5382,5.6693 -5.6693,5.6693 -3.131,0 -5.6693,-2.5382 -5.6693,-5.6693 0,-3.131 2.5383,-5.6693 5.6693,-5.6693 z"
       id="path966" /><path
       inkscape:connector-curvature="0"
       style="fill:none;stroke:#ff0000;stroke-width:0.28346455;stroke-linecap:round;stroke-linejoin:miter;stroke-miterlimit:10;stroke-dasharray:none;stroke-opacity:1"
       d="m 313.52743,48.1171 c 3.131,0 5.6693,2.5383 5.6693,5.6693 0,3.1311 -2.5383,5.6693 -5.6693,5.6693 -3.1311,0 -5.6693,-2.5382 -5.6693,-5.6693 0,-3.131 2.5382,-5.6693 5.6693,-5.6693 z"
       id="path964" /><path
       inkscape:connector-curvature="0"
       style="fill:none;stroke:#ff0000;stroke-width:0.28346455;stroke-linecap:round;stroke-linejoin:miter;stroke-miterlimit:10;stroke-dasharray:none;stroke-opacity:1"
       d="m 171.79513,48.1171 c 3.131,0 5.6693,2.5383 5.6693,5.6693 0,3.1311 -2.5383,5.6693 -5.6693,5.6693 -3.1311,0 -5.6693,-2.5382 -5.6693,-5.6693 0,-3.131 2.5382,-5.6693 5.6693,-5.6693 z"
       id="path962" /><path
       inkscape:connector-curvature="0"
       style="fill:none;stroke:#ff0000;stroke-width:0.28346455;stroke-linecap:round;stroke-linejoin:miter;stroke-miterlimit:10;stroke-dasharray:none;stroke-opacity:1"
       d="m 1589.118,189.84941 c 3.131,0 5.6693,2.5383 5.6693,5.6693 0,3.1311 -2.5383,5.6693 -5.6693,5.6693 -3.1311,0 -5.6693,-2.5382 -5.6693,-5.6693 0,-3.131 2.5382,-5.6693 5.6693,-5.6693 z"
       id="path960" /><path
       inkscape:connector-curvature="0"
       style="fill:none;stroke:#ff0000;stroke-width:0.28346455;stroke-linecap:round;stroke-linejoin:miter;stroke-miterlimit:10;stroke-dasharray:none;stroke-opacity:1"
       d="m 1447.3857,189.84941 c 3.131,0 5.6693,2.5383 5.6693,5.6693 0,3.1311 -2.5383,5.6693 -5.6693,5.6693 -3.1311,0 -5.6693,-2.5382 -5.6693,-5.6693 0,-3.131 2.5382,-5.6693 5.6693,-5.6693 z"
       id="path958" /><path
       inkscape:connector-curvature="0"
       style="fill:none;stroke:#ff0000;stroke-width:0.28346455;stroke-linecap:round;stroke-linejoin:miter;stroke-miterlimit:10;stroke-dasharray:none;stroke-opacity:1"
       d="m 1305.6534,189.84941 c 3.131,0 5.6693,2.5383 5.6693,5.6693 0,3.1311 -2.5383,5.6693 -5.6693,5.6693 -3.1311,0 -5.6693,-2.5382 -5.6693,-5.6693 0,-3.131 2.5382,-5.6693 5.6693,-5.6693 z"
       id="path956" /><path
       inkscape:connector-curvature="0"
       style="fill:none;stroke:#ff0000;stroke-width:0.28346455;stroke-linecap:round;stroke-linejoin:miter;stroke-miterlimit:10;stroke-dasharray:none;stroke-opacity:1"
       d="m 1163.9211,189.84941 c 3.131,0 5.6692,2.5383 5.6692,5.6693 0,3.1311 -2.5382,5.6693 -5.6692,5.6693 -3.1311,0 -5.6693,-2.5382 -5.6693,-5.6693 0,-3.131 2.5382,-5.6693 5.6693,-5.6693 z"
       id="path954" /><path
       inkscape:connector-curvature="0"
       style="fill:none;stroke:#ff0000;stroke-width:0.28346455;stroke-linecap:round;stroke-linejoin:miter;stroke-miterlimit:10;stroke-dasharray:none;stroke-opacity:1"
       d="m 1022.1887,189.84941 c 3.1311,0 5.6693,2.5383 5.6693,5.6693 0,3.1311 -2.5382,5.6693 -5.6693,5.6693 -3.131,0 -5.6692,-2.5382 -5.6692,-5.6693 0,-3.131 2.5382,-5.6693 5.6692,-5.6693 z"
       id="path952" /><path
       inkscape:connector-curvature="0"
       style="fill:none;stroke:#ff0000;stroke-width:0.28346455;stroke-linecap:round;stroke-linejoin:miter;stroke-miterlimit:10;stroke-dasharray:none;stroke-opacity:1"
       d="m 880.45663,189.84941 c 3.131,0 5.6692,2.5383 5.6692,5.6693 0,3.1311 -2.5382,5.6693 -5.6692,5.6693 -3.1311,0 -5.6693,-2.5382 -5.6693,-5.6693 0,-3.131 2.5382,-5.6693 5.6693,-5.6693 z"
       id="path950" /><path
       inkscape:connector-curvature="0"
       style="fill:none;stroke:#ff0000;stroke-width:0.28346455;stroke-linecap:round;stroke-linejoin:miter;stroke-miterlimit:10;stroke-dasharray:none;stroke-opacity:1"
       d="m 738.72423,189.84941 c 3.1311,0 5.6693,2.5383 5.6693,5.6693 0,3.1311 -2.5382,5.6693 -5.6693,5.6693 -3.131,0 -5.6692,-2.5382 -5.6692,-5.6693 0,-3.131 2.5382,-5.6693 5.6692,-5.6693 z"
       id="path948" /><path
       inkscape:connector-curvature="0"
       style="fill:none;stroke:#ff0000;stroke-width:0.28346455;stroke-linecap:round;stroke-linejoin:miter;stroke-miterlimit:10;stroke-dasharray:none;stroke-opacity:1"
       d="m 596.99193,189.84941 c 3.1311,0 5.6693,2.5383 5.6693,5.6693 0,3.1311 -2.5382,5.6693 -5.6693,5.6693 -3.131,0 -5.6693,-2.5382 -5.6693,-5.6693 0,-3.131 2.5383,-5.6693 5.6693,-5.6693 z"
       id="path946" /><path
       inkscape:connector-curvature="0"
       style="fill:none;stroke:#ff0000;stroke-width:0.28346455;stroke-linecap:round;stroke-linejoin:miter;stroke-miterlimit:10;stroke-dasharray:none;stroke-opacity:1"
       d="m 455.25963,189.84941 c 3.1311,0 5.6693,2.5383 5.6693,5.6693 0,3.1311 -2.5382,5.6693 -5.6693,5.6693 -3.131,0 -5.6693,-2.5382 -5.6693,-5.6693 0,-3.131 2.5383,-5.6693 5.6693,-5.6693 z"
       id="path944" /><path
       inkscape:connector-curvature="0"
       style="fill:none;stroke:#ff0000;stroke-width:0.28346455;stroke-linecap:round;stroke-linejoin:miter;stroke-miterlimit:10;stroke-dasharray:none;stroke-opacity:1"
       d="m 313.52743,189.84941 c 3.131,0 5.6693,2.5383 5.6693,5.6693 0,3.1311 -2.5383,5.6693 -5.6693,5.6693 -3.1311,0 -5.6693,-2.5382 -5.6693,-5.6693 0,-3.131 2.5382,-5.6693 5.6693,-5.6693 z"
       id="path942" /><path
       inkscape:connector-curvature="0"
       style="fill:none;stroke:#ff0000;stroke-width:0.28346455;stroke-linecap:round;stroke-linejoin:miter;stroke-miterlimit:10;stroke-dasharray:none;stroke-opacity:1"
       d="m 171.79513,189.84941 c 3.131,0 5.6693,2.5383 5.6693,5.6693 0,3.1311 -2.5383,5.6693 -5.6693,5.6693 -3.1311,0 -5.6693,-2.5382 -5.6693,-5.6693 0,-3.131 2.5382,-5.6693 5.6693,-5.6693 z"
       id="path940" /><path
       inkscape:connector-curvature="0"
       style="fill:none;stroke:#ff0000;stroke-width:0.28346455;stroke-linecap:round;stroke-linejoin:miter;stroke-miterlimit:10;stroke-dasharray:none;stroke-opacity:1"
       d="m 1589.118,331.58181 c 3.131,0 5.6693,2.5382 5.6693,5.6692 0,3.1311 -2.5383,5.6693 -5.6693,5.6693 -3.1311,0 -5.6693,-2.5382 -5.6693,-5.6693 0,-3.131 2.5382,-5.6692 5.6693,-5.6692 z"
       id="path938" /><path
       inkscape:connector-curvature="0"
       style="fill:none;stroke:#ff0000;stroke-width:0.28346455;stroke-linecap:round;stroke-linejoin:miter;stroke-miterlimit:10;stroke-dasharray:none;stroke-opacity:1"
       d="m 1447.3857,331.58181 c 3.131,0 5.6693,2.5382 5.6693,5.6692 0,3.1311 -2.5383,5.6693 -5.6693,5.6693 -3.1311,0 -5.6693,-2.5382 -5.6693,-5.6693 0,-3.131 2.5382,-5.6692 5.6693,-5.6692 z"
       id="path936" /><path
       inkscape:connector-curvature="0"
       style="fill:none;stroke:#ff0000;stroke-width:0.28346455;stroke-linecap:round;stroke-linejoin:miter;stroke-miterlimit:10;stroke-dasharray:none;stroke-opacity:1"
       d="m 1305.6534,331.58181 c 3.131,0 5.6693,2.5382 5.6693,5.6692 0,3.1311 -2.5383,5.6693 -5.6693,5.6693 -3.1311,0 -5.6693,-2.5382 -5.6693,-5.6693 0,-3.131 2.5382,-5.6692 5.6693,-5.6692 z"
       id="path934" /><path
       inkscape:connector-curvature="0"
       style="fill:none;stroke:#ff0000;stroke-width:0.28346455;stroke-linecap:round;stroke-linejoin:miter;stroke-miterlimit:10;stroke-dasharray:none;stroke-opacity:1"
       d="m 1163.9211,331.58181 c 3.131,0 5.6692,2.5382 5.6692,5.6692 0,3.1311 -2.5382,5.6693 -5.6692,5.6693 -3.1311,0 -5.6693,-2.5382 -5.6693,-5.6693 0,-3.131 2.5382,-5.6692 5.6693,-5.6692 z"
       id="path932" /><path
       inkscape:connector-curvature="0"
       style="fill:none;stroke:#ff0000;stroke-width:0.28346455;stroke-linecap:round;stroke-linejoin:miter;stroke-miterlimit:10;stroke-dasharray:none;stroke-opacity:1"
       d="m 1022.1887,331.58181 c 3.1311,0 5.6693,2.5382 5.6693,5.6692 0,3.1311 -2.5382,5.6693 -5.6693,5.6693 -3.131,0 -5.6692,-2.5382 -5.6692,-5.6693 0,-3.131 2.5382,-5.6692 5.6692,-5.6692 z"
       id="path930" /><path
       inkscape:connector-curvature="0"
       style="fill:none;stroke:#ff0000;stroke-width:0.28346455;stroke-linecap:round;stroke-linejoin:miter;stroke-miterlimit:10;stroke-dasharray:none;stroke-opacity:1"
       d="m 880.45663,331.58181 c 3.131,0 5.6692,2.5382 5.6692,5.6692 0,3.1311 -2.5382,5.6693 -5.6692,5.6693 -3.1311,0 -5.6693,-2.5382 -5.6693,-5.6693 0,-3.131 2.5382,-5.6692 5.6693,-5.6692 z"
       id="path928" /><path
       inkscape:connector-curvature="0"
       style="fill:none;stroke:#ff0000;stroke-width:0.28346455;stroke-linecap:round;stroke-linejoin:miter;stroke-miterlimit:10;stroke-dasharray:none;stroke-opacity:1"
       d="m 738.72423,331.58181 c 3.1311,0 5.6693,2.5382 5.6693,5.6692 0,3.1311 -2.5382,5.6693 -5.6693,5.6693 -3.131,0 -5.6692,-2.5382 -5.6692,-5.6693 0,-3.131 2.5382,-5.6692 5.6692,-5.6692 z"
       id="path926" /><path
       inkscape:connector-curvature="0"
       style="fill:none;stroke:#ff0000;stroke-width:0.28346455;stroke-linecap:round;stroke-linejoin:miter;stroke-miterlimit:10;stroke-dasharray:none;stroke-opacity:1"
       d="m 596.99193,331.58181 c 3.1311,0 5.6693,2.5382 5.6693,5.6692 0,3.1311 -2.5382,5.6693 -5.6693,5.6693 -3.131,0 -5.6693,-2.5382 -5.6693,-5.6693 0,-3.131 2.5383,-5.6692 5.6693,-5.6692 z"
       id="path924" /><path
       inkscape:connector-curvature="0"
       style="fill:none;stroke:#ff0000;stroke-width:0.28346455;stroke-linecap:round;stroke-linejoin:miter;stroke-miterlimit:10;stroke-dasharray:none;stroke-opacity:1"
       d="m 455.25963,331.58181 c 3.1311,0 5.6693,2.5382 5.6693,5.6692 0,3.1311 -2.5382,5.6693 -5.6693,5.6693 -3.131,0 -5.6693,-2.5382 -5.6693,-5.6693 0,-3.131 2.5383,-5.6692 5.6693,-5.6692 z"
       id="path922" /><path
       inkscape:connector-curvature="0"
       style="fill:none;stroke:#ff0000;stroke-width:0.28346455;stroke-linecap:round;stroke-linejoin:miter;stroke-miterlimit:10;stroke-dasharray:none;stroke-opacity:1"
       d="m 313.52743,331.58181 c 3.131,0 5.6693,2.5382 5.6693,5.6692 0,3.1311 -2.5383,5.6693 -5.6693,5.6693 -3.1311,0 -5.6693,-2.5382 -5.6693,-5.6693 0,-3.131 2.5382,-5.6692 5.6693,-5.6692 z"
       id="path920" /><path
       inkscape:connector-curvature="0"
       style="fill:none;stroke:#ff0000;stroke-width:0.28346455;stroke-linecap:round;stroke-linejoin:miter;stroke-miterlimit:10;stroke-dasharray:none;stroke-opacity:1"
       d="m 171.79513,331.58181 c 3.131,0 5.6693,2.5382 5.6693,5.6692 0,3.1311 -2.5383,5.6693 -5.6693,5.6693 -3.1311,0 -5.6693,-2.5382 -5.6693,-5.6693 0,-3.131 2.5382,-5.6692 5.6693,-5.6692 z"
       id="path918" /><path
       inkscape:connector-curvature="0"
       style="fill:none;stroke:#ff0000;stroke-width:0.28346455;stroke-linecap:round;stroke-linejoin:miter;stroke-miterlimit:10;stroke-dasharray:none;stroke-opacity:1"
       d="m 1589.118,473.31411 c 3.131,0 5.6693,2.5382 5.6693,5.6693 0,3.131 -2.5383,5.6692 -5.6693,5.6692 -3.1311,0 -5.6693,-2.5382 -5.6693,-5.6692 0,-3.1311 2.5382,-5.6693 5.6693,-5.6693 z"
       id="path916" /><path
       inkscape:connector-curvature="0"
       style="fill:none;stroke:#ff0000;stroke-width:0.28346455;stroke-linecap:round;stroke-linejoin:miter;stroke-miterlimit:10;stroke-dasharray:none;stroke-opacity:1"
       d="m 1447.3857,473.31411 c 3.131,0 5.6693,2.5382 5.6693,5.6693 0,3.131 -2.5383,5.6692 -5.6693,5.6692 -3.1311,0 -5.6693,-2.5382 -5.6693,-5.6692 0,-3.1311 2.5382,-5.6693 5.6693,-5.6693 z"
       id="path914" /><path
       inkscape:connector-curvature="0"
       style="fill:none;stroke:#ff0000;stroke-width:0.28346455;stroke-linecap:round;stroke-linejoin:miter;stroke-miterlimit:10;stroke-dasharray:none;stroke-opacity:1"
       d="m 1305.6534,473.31411 c 3.131,0 5.6693,2.5382 5.6693,5.6693 0,3.131 -2.5383,5.6692 -5.6693,5.6692 -3.1311,0 -5.6693,-2.5382 -5.6693,-5.6692 0,-3.1311 2.5382,-5.6693 5.6693,-5.6693 z"
       id="path912" /><path
       inkscape:connector-curvature="0"
       style="fill:none;stroke:#ff0000;stroke-width:0.28346455;stroke-linecap:round;stroke-linejoin:miter;stroke-miterlimit:10;stroke-dasharray:none;stroke-opacity:1"
       d="m 1163.9211,473.31411 c 3.131,0 5.6692,2.5382 5.6692,5.6693 0,3.131 -2.5382,5.6692 -5.6692,5.6692 -3.1311,0 -5.6693,-2.5382 -5.6693,-5.6692 0,-3.1311 2.5382,-5.6693 5.6693,-5.6693 z"
       id="path910" /><path
       inkscape:connector-curvature="0"
       style="fill:none;stroke:#ff0000;stroke-width:0.28346455;stroke-linecap:round;stroke-linejoin:miter;stroke-miterlimit:10;stroke-dasharray:none;stroke-opacity:1"
       d="m 1022.1887,473.31411 c 3.1311,0 5.6693,2.5382 5.6693,5.6693 0,3.131 -2.5382,5.6692 -5.6693,5.6692 -3.131,0 -5.6692,-2.5382 -5.6692,-5.6692 0,-3.1311 2.5382,-5.6693 5.6692,-5.6693 z"
       id="path908" /><path
       inkscape:connector-curvature="0"
       style="fill:none;stroke:#ff0000;stroke-width:0.28346455;stroke-linecap:round;stroke-linejoin:miter;stroke-miterlimit:10;stroke-dasharray:none;stroke-opacity:1"
       d="m 880.45663,473.31411 c 3.131,0 5.6692,2.5382 5.6692,5.6693 0,3.131 -2.5382,5.6692 -5.6692,5.6692 -3.1311,0 -5.6693,-2.5382 -5.6693,-5.6692 0,-3.1311 2.5382,-5.6693 5.6693,-5.6693 z"
       id="path906" /><path
       inkscape:connector-curvature="0"
       style="fill:none;stroke:#ff0000;stroke-width:0.28346455;stroke-linecap:round;stroke-linejoin:miter;stroke-miterlimit:10;stroke-dasharray:none;stroke-opacity:1"
       d="m 738.72423,473.31411 c 3.1311,0 5.6693,2.5382 5.6693,5.6693 0,3.131 -2.5382,5.6692 -5.6693,5.6692 -3.131,0 -5.6692,-2.5382 -5.6692,-5.6692 0,-3.1311 2.5382,-5.6693 5.6692,-5.6693 z"
       id="path904" /><path
       inkscape:connector-curvature="0"
       style="fill:none;stroke:#ff0000;stroke-width:0.28346455;stroke-linecap:round;stroke-linejoin:miter;stroke-miterlimit:10;stroke-dasharray:none;stroke-opacity:1"
       d="m 596.99193,473.31411 c 3.1311,0 5.6693,2.5382 5.6693,5.6693 0,3.131 -2.5382,5.6692 -5.6693,5.6692 -3.131,0 -5.6693,-2.5382 -5.6693,-5.6692 0,-3.1311 2.5383,-5.6693 5.6693,-5.6693 z"
       id="path902" /><path
       inkscape:connector-curvature="0"
       style="fill:none;stroke:#ff0000;stroke-width:0.28346455;stroke-linecap:round;stroke-linejoin:miter;stroke-miterlimit:10;stroke-dasharray:none;stroke-opacity:1"
       d="m 455.25963,473.31411 c 3.1311,0 5.6693,2.5382 5.6693,5.6693 0,3.131 -2.5382,5.6692 -5.6693,5.6692 -3.131,0 -5.6693,-2.5382 -5.6693,-5.6692 0,-3.1311 2.5383,-5.6693 5.6693,-5.6693 z"
       id="path900" /><path
       inkscape:connector-curvature="0"
       style="fill:none;stroke:#ff0000;stroke-width:0.28346455;stroke-linecap:round;stroke-linejoin:miter;stroke-miterlimit:10;stroke-dasharray:none;stroke-opacity:1"
       d="m 313.52743,473.31411 c 3.131,0 5.6693,2.5382 5.6693,5.6693 0,3.131 -2.5383,5.6692 -5.6693,5.6692 -3.1311,0 -5.6693,-2.5382 -5.6693,-5.6692 0,-3.1311 2.5382,-5.6693 5.6693,-5.6693 z"
       id="path898" /><path
       inkscape:connector-curvature="0"
       style="fill:none;stroke:#ff0000;stroke-width:0.28346455;stroke-linecap:round;stroke-linejoin:miter;stroke-miterlimit:10;stroke-dasharray:none;stroke-opacity:1"
       d="m 171.79513,473.31411 c 3.131,0 5.6693,2.5382 5.6693,5.6693 0,3.131 -2.5383,5.6692 -5.6693,5.6692 -3.1311,0 -5.6693,-2.5382 -5.6693,-5.6692 0,-3.1311 2.5382,-5.6693 5.6693,-5.6693 z"
       id="path896" /><path
       inkscape:connector-curvature="0"
       style="fill:none;stroke:#ff0000;stroke-width:0.28346455;stroke-linecap:round;stroke-linejoin:miter;stroke-miterlimit:10;stroke-dasharray:none;stroke-opacity:1"
       d="m 1589.118,615.04631 c 3.131,0 5.6693,2.5382 5.6693,5.6692 0,3.1311 -2.5383,5.6693 -5.6693,5.6693 -3.1311,0 -5.6693,-2.5382 -5.6693,-5.6693 0,-3.131 2.5382,-5.6692 5.6693,-5.6692 z"
       id="path894" /><path
       inkscape:connector-curvature="0"
       style="fill:none;stroke:#ff0000;stroke-width:0.28346455;stroke-linecap:round;stroke-linejoin:miter;stroke-miterlimit:10;stroke-dasharray:none;stroke-opacity:1"
       d="m 1447.3857,615.04631 c 3.131,0 5.6693,2.5382 5.6693,5.6692 0,3.1311 -2.5383,5.6693 -5.6693,5.6693 -3.1311,0 -5.6693,-2.5382 -5.6693,-5.6693 0,-3.131 2.5382,-5.6692 5.6693,-5.6692 z"
       id="path892" /><path
       inkscape:connector-curvature="0"
       style="fill:none;stroke:#ff0000;stroke-width:0.28346455;stroke-linecap:round;stroke-linejoin:miter;stroke-miterlimit:10;stroke-dasharray:none;stroke-opacity:1"
       d="m 1305.6534,615.04631 c 3.131,0 5.6693,2.5382 5.6693,5.6692 0,3.1311 -2.5383,5.6693 -5.6693,5.6693 -3.1311,0 -5.6693,-2.5382 -5.6693,-5.6693 0,-3.131 2.5382,-5.6692 5.6693,-5.6692 z"
       id="path890" /><path
       inkscape:connector-curvature="0"
       style="fill:none;stroke:#ff0000;stroke-width:0.28346455;stroke-linecap:round;stroke-linejoin:miter;stroke-miterlimit:10;stroke-dasharray:none;stroke-opacity:1"
       d="m 1163.9211,615.04631 c 3.131,0 5.6692,2.5382 5.6692,5.6692 0,3.1311 -2.5382,5.6693 -5.6692,5.6693 -3.1311,0 -5.6693,-2.5382 -5.6693,-5.6693 0,-3.131 2.5382,-5.6692 5.6693,-5.6692 z"
       id="path888" /><path
       inkscape:connector-curvature="0"
       style="fill:none;stroke:#ff0000;stroke-width:0.28346455;stroke-linecap:round;stroke-linejoin:miter;stroke-miterlimit:10;stroke-dasharray:none;stroke-opacity:1"
       d="m 1022.1887,615.04631 c 3.1311,0 5.6693,2.5382 5.6693,5.6692 0,3.1311 -2.5382,5.6693 -5.6693,5.6693 -3.131,0 -5.6692,-2.5382 -5.6692,-5.6693 0,-3.131 2.5382,-5.6692 5.6692,-5.6692 z"
       id="path886" /><path
       inkscape:connector-curvature="0"
       style="fill:none;stroke:#ff0000;stroke-width:0.28346455;stroke-linecap:round;stroke-linejoin:miter;stroke-miterlimit:10;stroke-dasharray:none;stroke-opacity:1"
       d="m 880.45663,615.04631 c 3.131,0 5.6692,2.5382 5.6692,5.6692 0,3.1311 -2.5382,5.6693 -5.6692,5.6693 -3.1311,0 -5.6693,-2.5382 -5.6693,-5.6693 0,-3.131 2.5382,-5.6692 5.6693,-5.6692 z"
       id="path884" /><path
       inkscape:connector-curvature="0"
       style="fill:none;stroke:#ff0000;stroke-width:0.28346455;stroke-linecap:round;stroke-linejoin:miter;stroke-miterlimit:10;stroke-dasharray:none;stroke-opacity:1"
       d="m 738.72423,615.04631 c 3.1311,0 5.6693,2.5382 5.6693,5.6692 0,3.1311 -2.5382,5.6693 -5.6693,5.6693 -3.131,0 -5.6692,-2.5382 -5.6692,-5.6693 0,-3.131 2.5382,-5.6692 5.6692,-5.6692 z"
       id="path882" /><path
       inkscape:connector-curvature="0"
       style="fill:none;stroke:#ff0000;stroke-width:0.28346455;stroke-linecap:round;stroke-linejoin:miter;stroke-miterlimit:10;stroke-dasharray:none;stroke-opacity:1"
       d="m 596.99193,615.04631 c 3.1311,0 5.6693,2.5382 5.6693,5.6692 0,3.1311 -2.5382,5.6693 -5.6693,5.6693 -3.131,0 -5.6693,-2.5382 -5.6693,-5.6693 0,-3.131 2.5383,-5.6692 5.6693,-5.6692 z"
       id="path880" /><path
       inkscape:connector-curvature="0"
       style="fill:none;stroke:#ff0000;stroke-width:0.28346455;stroke-linecap:round;stroke-linejoin:miter;stroke-miterlimit:10;stroke-dasharray:none;stroke-opacity:1"
       d="m 455.25963,615.04631 c 3.1311,0 5.6693,2.5382 5.6693,5.6692 0,3.1311 -2.5382,5.6693 -5.6693,5.6693 -3.131,0 -5.6693,-2.5382 -5.6693,-5.6693 0,-3.131 2.5383,-5.6692 5.6693,-5.6692 z"
       id="path878" /><path
       inkscape:connector-curvature="0"
       style="fill:none;stroke:#ff0000;stroke-width:0.28346455;stroke-linecap:round;stroke-linejoin:miter;stroke-miterlimit:10;stroke-dasharray:none;stroke-opacity:1"
       d="m 313.52743,615.04631 c 3.131,0 5.6693,2.5382 5.6693,5.6692 0,3.1311 -2.5383,5.6693 -5.6693,5.6693 -3.1311,0 -5.6693,-2.5382 -5.6693,-5.6693 0,-3.131 2.5382,-5.6692 5.6693,-5.6692 z"
       id="path876" /><path
       inkscape:connector-curvature="0"
       style="fill:none;stroke:#ff0000;stroke-width:0.28346455;stroke-linecap:round;stroke-linejoin:miter;stroke-miterlimit:10;stroke-dasharray:none;stroke-opacity:1"
       d="m 171.79513,615.04631 c 3.131,0 5.6693,2.5382 5.6693,5.6692 0,3.1311 -2.5383,5.6693 -5.6693,5.6693 -3.1311,0 -5.6693,-2.5382 -5.6693,-5.6693 0,-3.131 2.5382,-5.6692 5.6693,-5.6692 z"
       id="path874" /><path
       inkscape:connector-curvature="0"
       style="fill:none;stroke:#ff0000;stroke-width:0.28346455;stroke-linecap:round;stroke-linejoin:miter;stroke-miterlimit:10;stroke-dasharray:none;stroke-opacity:1"
       d="m 1589.118,756.77861 c 3.131,0 5.6693,2.5382 5.6693,5.6693 0,3.131 -2.5383,5.6692 -5.6693,5.6692 -3.1311,0 -5.6693,-2.5382 -5.6693,-5.6692 0,-3.1311 2.5382,-5.6693 5.6693,-5.6693 z"
       id="path872" /><path
       inkscape:connector-curvature="0"
       style="fill:none;stroke:#ff0000;stroke-width:0.28346455;stroke-linecap:round;stroke-linejoin:miter;stroke-miterlimit:10;stroke-dasharray:none;stroke-opacity:1"
       d="m 1447.3857,756.77861 c 3.131,0 5.6693,2.5382 5.6693,5.6693 0,3.131 -2.5383,5.6692 -5.6693,5.6692 -3.1311,0 -5.6693,-2.5382 -5.6693,-5.6692 0,-3.1311 2.5382,-5.6693 5.6693,-5.6693 z"
       id="path870" /><path
       inkscape:connector-curvature="0"
       style="fill:none;stroke:#ff0000;stroke-width:0.28346455;stroke-linecap:round;stroke-linejoin:miter;stroke-miterlimit:10;stroke-dasharray:none;stroke-opacity:1"
       d="m 1305.6534,756.77861 c 3.131,0 5.6693,2.5382 5.6693,5.6693 0,3.131 -2.5383,5.6692 -5.6693,5.6692 -3.1311,0 -5.6693,-2.5382 -5.6693,-5.6692 0,-3.1311 2.5382,-5.6693 5.6693,-5.6693 z"
       id="path868" /><path
       inkscape:connector-curvature="0"
       style="fill:none;stroke:#ff0000;stroke-width:0.28346455;stroke-linecap:round;stroke-linejoin:miter;stroke-miterlimit:10;stroke-dasharray:none;stroke-opacity:1"
       d="m 1163.9211,756.77861 c 3.131,0 5.6692,2.5382 5.6692,5.6693 0,3.131 -2.5382,5.6692 -5.6692,5.6692 -3.1311,0 -5.6693,-2.5382 -5.6693,-5.6692 0,-3.1311 2.5382,-5.6693 5.6693,-5.6693 z"
       id="path866" /><path
       inkscape:connector-curvature="0"
       style="fill:none;stroke:#ff0000;stroke-width:0.28346455;stroke-linecap:round;stroke-linejoin:miter;stroke-miterlimit:10;stroke-dasharray:none;stroke-opacity:1"
       d="m 1022.1887,756.77861 c 3.1311,0 5.6693,2.5382 5.6693,5.6693 0,3.131 -2.5382,5.6692 -5.6693,5.6692 -3.131,0 -5.6692,-2.5382 -5.6692,-5.6692 0,-3.1311 2.5382,-5.6693 5.6692,-5.6693 z"
       id="path864" /><path
       inkscape:connector-curvature="0"
       style="fill:none;stroke:#ff0000;stroke-width:0.28346455;stroke-linecap:round;stroke-linejoin:miter;stroke-miterlimit:10;stroke-dasharray:none;stroke-opacity:1"
       d="m 880.45663,756.77861 c 3.131,0 5.6692,2.5382 5.6692,5.6693 0,3.131 -2.5382,5.6692 -5.6692,5.6692 -3.1311,0 -5.6693,-2.5382 -5.6693,-5.6692 0,-3.1311 2.5382,-5.6693 5.6693,-5.6693 z"
       id="path862" /><path
       inkscape:connector-curvature="0"
       style="fill:none;stroke:#ff0000;stroke-width:0.28346455;stroke-linecap:round;stroke-linejoin:miter;stroke-miterlimit:10;stroke-dasharray:none;stroke-opacity:1"
       d="m 738.72423,756.77861 c 3.1311,0 5.6693,2.5382 5.6693,5.6693 0,3.131 -2.5382,5.6692 -5.6693,5.6692 -3.131,0 -5.6692,-2.5382 -5.6692,-5.6692 0,-3.1311 2.5382,-5.6693 5.6692,-5.6693 z"
       id="path860" /><path
       inkscape:connector-curvature="0"
       style="fill:none;stroke:#ff0000;stroke-width:0.28346455;stroke-linecap:round;stroke-linejoin:miter;stroke-miterlimit:10;stroke-dasharray:none;stroke-opacity:1"
       d="m 596.99193,756.77861 c 3.1311,0 5.6693,2.5382 5.6693,5.6693 0,3.131 -2.5382,5.6692 -5.6693,5.6692 -3.131,0 -5.6693,-2.5382 -5.6693,-5.6692 0,-3.1311 2.5383,-5.6693 5.6693,-5.6693 z"
       id="path858" /><path
       inkscape:connector-curvature="0"
       style="fill:none;stroke:#ff0000;stroke-width:0.28346455;stroke-linecap:round;stroke-linejoin:miter;stroke-miterlimit:10;stroke-dasharray:none;stroke-opacity:1"
       d="m 455.25963,756.77861 c 3.1311,0 5.6693,2.5382 5.6693,5.6693 0,3.131 -2.5382,5.6692 -5.6693,5.6692 -3.131,0 -5.6693,-2.5382 -5.6693,-5.6692 0,-3.1311 2.5383,-5.6693 5.6693,-5.6693 z"
       id="path856" /><path
       inkscape:connector-curvature="0"
       style="fill:none;stroke:#ff0000;stroke-width:0.28346455;stroke-linecap:round;stroke-linejoin:miter;stroke-miterlimit:10;stroke-dasharray:none;stroke-opacity:1"
       d="m 313.52743,756.77861 c 3.131,0 5.6693,2.5382 5.6693,5.6693 0,3.131 -2.5383,5.6692 -5.6693,5.6692 -3.1311,0 -5.6693,-2.5382 -5.6693,-5.6692 0,-3.1311 2.5382,-5.6693 5.6693,-5.6693 z"
       id="path854" /><path
       inkscape:connector-curvature="0"
       style="fill:none;stroke:#ff0000;stroke-width:0.28346455;stroke-linecap:round;stroke-linejoin:miter;stroke-miterlimit:10;stroke-dasharray:none;stroke-opacity:1"
       d="m 171.79513,756.77861 c 3.131,0 5.6693,2.5382 5.6693,5.6693 0,3.131 -2.5383,5.6692 -5.6693,5.6692 -3.1311,0 -5.6693,-2.5382 -5.6693,-5.6692 0,-3.1311 2.5382,-5.6693 5.6693,-5.6693 z"
       id="path19343" /><flowRoot
       xml:space="preserve"
       id="flowRoot20655"
       style="font-style:normal;font-weight:normal;font-size:85.33333588px;line-height:1.25;font-family:sans-serif;letter-spacing:0px;word-spacing:0px;fill:none;fill-opacity:1;stroke:#0000ff;stroke-opacity:1;"
       transform="matrix(0,-0.74999998,-0.74999998,0,-166.77851,793.36189)"><flowRegion
         id="flowRegion20657"
         style="font-size:85.33333588px;fill:none;stroke:#0000ff;stroke-opacity:1;"><rect
           id="rect20659"
           width="537.45172"
           height="287.41422"
           x="-16.755089"
           y="-412.76532"
           style="font-size:85.33333588px;fill:none;stroke:#0000ff;stroke-opacity:1;" /></flowRegion><flowPara
         id="flowPara20661">4</flowPara></flowRoot><flowRoot
       xml:space="preserve"
       id="flowRoot20663"
       style="fill:black;fill-opacity:1;stroke:none;font-family:sans-serif;font-style:normal;font-weight:normal;font-size:40px;line-height:1.25;letter-spacing:0px;word-spacing:0px"><flowRegion
         id="flowRegion20665"><rect
           id="rect20667"
           width="157.24007"
           height="170.1286"
           x="-48.976414"
           y="-424.36499" /></flowRegion><flowPara
         id="flowPara20669" /></flowRoot></g></svg>