<?xml version="1.0" encoding="UTF-8" standalone="no"?>
<!-- Created with Inkscape (http://www.inkscape.org/) -->

<svg
   xmlns:dc="http://purl.org/dc/elements/1.1/"
   xmlns:cc="http://creativecommons.org/ns#"
   xmlns:rdf="http://www.w3.org/1999/02/22-rdf-syntax-ns#"
   xmlns:svg="http://www.w3.org/2000/svg"
   xmlns="http://www.w3.org/2000/svg"
   xmlns:sodipodi="http://sodipodi.sourceforge.net/DTD/sodipodi-0.dtd"
   xmlns:inkscape="http://www.inkscape.org/namespaces/inkscape"
   version="1.1"
   id="svg6612"
   xml:space="preserve"
   width="600mm"
   height="300mm"
   viewBox="0 0 2267.7165 1133.8582"
   sodipodi:docname="Back plate 5ML.svg"
   inkscape:version="0.92.4 (5da689c313, 2019-01-14)"><metadata
     id="metadata6618"><rdf:RDF><cc:Work
         rdf:about=""><dc:format>image/svg+xml</dc:format><dc:type
           rdf:resource="http://purl.org/dc/dcmitype/StillImage" /><dc:title /></cc:Work></rdf:RDF></metadata><defs
     id="defs6616" /><sodipodi:namedview
     pagecolor="#ffffff"
     bordercolor="#666666"
     borderopacity="1"
     objecttolerance="10"
     gridtolerance="10"
     guidetolerance="10"
     inkscape:pageopacity="0"
     inkscape:pageshadow="2"
     inkscape:window-width="1920"
     inkscape:window-height="1017"
     id="namedview6614"
     showgrid="false"
     units="mm"
     inkscape:document-units="mm"
     inkscape:zoom="0.44897864"
     inkscape:cx="644.28244"
     inkscape:cy="443.29713"
     inkscape:window-x="-8"
     inkscape:window-y="-8"
     inkscape:window-maximized="1"
     inkscape:current-layer="g6620" /><g
     id="g6620"
     inkscape:groupmode="layer"
     inkscape:label="frame"
     transform="matrix(1.3333333,0,0,-1.3333333,0,1133.8584)"><flowRoot
       xml:space="preserve"
       id="flowRoot14977"
       style="fill:black;fill-opacity:1;stroke:#ff0000;font-family:sans-serif;font-style:normal;font-weight:normal;font-size:40px;line-height:1.25;letter-spacing:0px;word-spacing:0px;stroke-opacity:1;stroke-width:0.28346456;stroke-miterlimit:9.70873833;stroke-dasharray:none"><flowRegion
         id="flowRegion14979"
         style="stroke:#ff0000;stroke-opacity:1;stroke-width:0.28346456;stroke-miterlimit:9.70873833;stroke-dasharray:none"><rect
           id="rect14981"
           width="114.84435"
           height="114.67413"
           x="112"
           y="193.85828"
           style="stroke:#ff0000;stroke-opacity:1;stroke-width:0.28346456;stroke-miterlimit:9.70873833;stroke-dasharray:none" /></flowRegion><flowPara
         id="flowPara14983" /></flowRoot><flowRoot
       xml:space="preserve"
       id="flowRoot14985"
       style="fill:black;fill-opacity:1;stroke:#ff0000;font-family:sans-serif;font-style:normal;font-weight:normal;font-size:85.33333333px;line-height:1.25;letter-spacing:0px;word-spacing:0px;stroke-opacity:1;stroke-width:0.28346456;stroke-miterlimit:9.70873833;stroke-dasharray:none"><flowRegion
         id="flowRegion14987"
         style="font-size:85.33333333px;stroke:#ff0000;stroke-opacity:1;stroke-width:0.28346456;stroke-miterlimit:9.70873833;stroke-dasharray:none"><rect
           id="rect14989"
           width="200"
           height="148"
           x="92"
           y="197.85828"
           style="font-size:85.33333333px;stroke:#ff0000;stroke-opacity:1;stroke-width:0.28346456;stroke-miterlimit:9.70873833;stroke-dasharray:none" /></flowRegion><flowPara
         id="flowPara14991" /></flowRoot><path
       style="fill:none;stroke:#ff0000;stroke-width:0.28346455;stroke-linecap:round;stroke-linejoin:miter;stroke-miterlimit:9.70873833;stroke-dasharray:none;stroke-opacity:1"
       d="m 167.24312,713.80493 c 3.131,0 5.6693,2.5383 5.6693,5.6693 0,3.1311 -2.5383,5.6693 -5.6693,5.6693 -3.1311,0 -5.6693,-2.5382 -5.6693,-5.6693 0,-3.131 2.5382,-5.6693 5.6693,-5.6693 z"
       id="path21547"
       inkscape:connector-curvature="0"
       sodipodi:nodetypes="ssscs" /><path
       style="fill:none;stroke:#ff0000;stroke-width:0.28346455;stroke-linecap:round;stroke-linejoin:miter;stroke-miterlimit:9.70873833;stroke-dasharray:none;stroke-opacity:1"
       d="m 308.97542,713.80493 c 3.131,0 5.6693,2.5383 5.6693,5.6693 0,3.1311 -2.5383,5.6693 -5.6693,5.6693 -3.1311,0 -5.6693,-2.5382 -5.6693,-5.6693 0,-3.131 2.5382,-5.6693 5.6693,-5.6693 z"
       id="path21545"
       inkscape:connector-curvature="0"
       sodipodi:nodetypes="ssscs" /><path
       style="fill:none;stroke:#ff0000;stroke-width:0.28346455;stroke-linecap:round;stroke-linejoin:miter;stroke-miterlimit:9.70873833;stroke-dasharray:none;stroke-opacity:1"
       d="m 450.70762,713.80493 c 3.1311,0 5.6693,2.5383 5.6693,5.6693 0,3.1311 -2.5382,5.6693 -5.6693,5.6693 -3.131,0 -5.6693,-2.5382 -5.6693,-5.6693 0,-3.131 2.5383,-5.6693 5.6693,-5.6693 z"
       id="path21543"
       inkscape:connector-curvature="0"
       sodipodi:nodetypes="ssscs" /><path
       style="fill:none;stroke:#ff0000;stroke-width:0.28346455;stroke-linecap:round;stroke-linejoin:miter;stroke-miterlimit:9.70873833;stroke-dasharray:none;stroke-opacity:1"
       d="m 592.43992,713.80493 c 3.1311,0 5.6693,2.5383 5.6693,5.6693 0,3.1311 -2.5382,5.6693 -5.6693,5.6693 -3.131,0 -5.6693,-2.5382 -5.6693,-5.6693 0,-3.131 2.5383,-5.6693 5.6693,-5.6693 z"
       id="path21541"
       inkscape:connector-curvature="0"
       sodipodi:nodetypes="ssscs" /><path
       style="fill:none;stroke:#ff0000;stroke-width:0.28346455;stroke-linecap:round;stroke-linejoin:miter;stroke-miterlimit:9.70873833;stroke-dasharray:none;stroke-opacity:1"
       d="m 734.17222,713.80493 c 3.1311,0 5.6693,2.5383 5.6693,5.6693 0,3.1311 -2.5382,5.6693 -5.6693,5.6693 -3.131,0 -5.6692,-2.5382 -5.6692,-5.6693 0,-3.131 2.5382,-5.6693 5.6692,-5.6693 z"
       id="path21539"
       inkscape:connector-curvature="0"
       sodipodi:nodetypes="ssscs" /><path
       style="fill:none;stroke:#ff0000;stroke-width:0.28346455;stroke-linecap:round;stroke-linejoin:miter;stroke-miterlimit:9.70873833;stroke-dasharray:none;stroke-opacity:1"
       d="m 875.90462,713.80493 c 3.131,0 5.6692,2.5383 5.6692,5.6693 0,3.1311 -2.5382,5.6693 -5.6692,5.6693 -3.1311,0 -5.6693,-2.5382 -5.6693,-5.6693 0,-3.131 2.5382,-5.6693 5.6693,-5.6693 z"
       id="path21537"
       inkscape:connector-curvature="0"
       sodipodi:nodetypes="ssscs" /><path
       style="fill:none;stroke:#ff0000;stroke-width:0.28346455;stroke-linecap:round;stroke-linejoin:miter;stroke-miterlimit:9.70873833;stroke-dasharray:none;stroke-opacity:1"
       d="m 1017.6367,713.80493 c 3.1311,0 5.6693,2.5383 5.6693,5.6693 0,3.1311 -2.5382,5.6693 -5.6693,5.6693 -3.131,0 -5.6692,-2.5382 -5.6692,-5.6693 0,-3.131 2.5382,-5.6693 5.6692,-5.6693 z"
       id="path21535"
       inkscape:connector-curvature="0"
       sodipodi:nodetypes="ssscs" /><path
       style="fill:none;stroke:#ff0000;stroke-width:0.28346455;stroke-linecap:round;stroke-linejoin:miter;stroke-miterlimit:9.70873833;stroke-dasharray:none;stroke-opacity:1"
       d="m 1159.3691,713.80493 c 3.131,0 5.6692,2.5383 5.6692,5.6693 0,3.1311 -2.5382,5.6693 -5.6692,5.6693 -3.1311,0 -5.6693,-2.5382 -5.6693,-5.6693 0,-3.131 2.5382,-5.6693 5.6693,-5.6693 z"
       id="path21533"
       inkscape:connector-curvature="0"
       sodipodi:nodetypes="ssscs" /><path
       style="fill:none;stroke:#ff0000;stroke-width:0.28346455;stroke-linecap:round;stroke-linejoin:miter;stroke-miterlimit:9.70873833;stroke-dasharray:none;stroke-opacity:1"
       d="m 1301.1014,713.80493 c 3.131,0 5.6693,2.5383 5.6693,5.6693 0,3.1311 -2.5383,5.6693 -5.6693,5.6693 -3.1311,0 -5.6693,-2.5382 -5.6693,-5.6693 0,-3.131 2.5382,-5.6693 5.6693,-5.6693 z"
       id="path21531"
       inkscape:connector-curvature="0"
       sodipodi:nodetypes="ssscs" /><path
       style="fill:none;stroke:#ff0000;stroke-width:0.28346455;stroke-linecap:round;stroke-linejoin:miter;stroke-miterlimit:9.70873833;stroke-dasharray:none;stroke-opacity:1"
       d="m 1442.8337,713.80493 c 3.131,0 5.6693,2.5383 5.6693,5.6693 0,3.1311 -2.5383,5.6693 -5.6693,5.6693 -3.1311,0 -5.6693,-2.5382 -5.6693,-5.6693 0,-3.131 2.5382,-5.6693 5.6693,-5.6693 z"
       id="path21529"
       inkscape:connector-curvature="0"
       sodipodi:nodetypes="ssscs" /><path
       style="fill:none;stroke:#ff0000;stroke-width:0.28346455;stroke-linecap:round;stroke-linejoin:miter;stroke-miterlimit:9.70873833;stroke-dasharray:none;stroke-opacity:1"
       d="m 1584.566,713.80493 c 3.131,0 5.6693,2.5383 5.6693,5.6693 0,3.1311 -2.5383,5.6693 -5.6693,5.6693 -3.1311,0 -5.6693,-2.5382 -5.6693,-5.6693 0,-3.131 2.5382,-5.6693 5.6693,-5.6693 z"
       id="path21527"
       inkscape:connector-curvature="0"
       sodipodi:nodetypes="ssscs" /><path
       style="fill:none;stroke:#ff0000;stroke-width:0.28346455;stroke-linecap:round;stroke-linejoin:miter;stroke-miterlimit:9.70873833;stroke-dasharray:none;stroke-opacity:1"
       d="m 167.24312,572.07263 c 3.131,0 5.6693,2.5382 5.6693,5.6693 0,3.1311 -2.5383,5.6693 -5.6693,5.6693 -3.1311,0 -5.6693,-2.5382 -5.6693,-5.6693 0,-3.1311 2.5382,-5.6693 5.6693,-5.6693 z"
       id="path21517"
       inkscape:connector-curvature="0"
       sodipodi:nodetypes="ssscs" /><path
       style="fill:none;stroke:#ff0000;stroke-width:0.28346455;stroke-linecap:round;stroke-linejoin:miter;stroke-miterlimit:9.70873833;stroke-dasharray:none;stroke-opacity:1"
       d="m 308.97542,572.07263 c 3.131,0 5.6693,2.5382 5.6693,5.6693 0,3.1311 -2.5383,5.6693 -5.6693,5.6693 -3.1311,0 -5.6693,-2.5382 -5.6693,-5.6693 0,-3.1311 2.5382,-5.6693 5.6693,-5.6693 z"
       id="path21515"
       inkscape:connector-curvature="0"
       sodipodi:nodetypes="ssscs" /><path
       style="fill:none;stroke:#ff0000;stroke-width:0.28346455;stroke-linecap:round;stroke-linejoin:miter;stroke-miterlimit:9.70873833;stroke-dasharray:none;stroke-opacity:1"
       d="m 450.70762,572.07263 c 3.1311,0 5.6693,2.5382 5.6693,5.6693 0,3.1311 -2.5382,5.6693 -5.6693,5.6693 -3.131,0 -5.6693,-2.5382 -5.6693,-5.6693 0,-3.1311 2.5383,-5.6693 5.6693,-5.6693 z"
       id="path21513"
       inkscape:connector-curvature="0"
       sodipodi:nodetypes="ssscs" /><path
       style="fill:none;stroke:#ff0000;stroke-width:0.28346455;stroke-linecap:round;stroke-linejoin:miter;stroke-miterlimit:9.70873833;stroke-dasharray:none;stroke-opacity:1"
       d="m 592.43992,572.07263 c 3.1311,0 5.6693,2.5382 5.6693,5.6693 0,3.1311 -2.5382,5.6693 -5.6693,5.6693 -3.131,0 -5.6693,-2.5382 -5.6693,-5.6693 0,-3.1311 2.5383,-5.6693 5.6693,-5.6693 z"
       id="path21511"
       inkscape:connector-curvature="0"
       sodipodi:nodetypes="ssscs" /><path
       style="fill:none;stroke:#ff0000;stroke-width:0.28346455;stroke-linecap:round;stroke-linejoin:miter;stroke-miterlimit:9.70873833;stroke-dasharray:none;stroke-opacity:1"
       d="m 734.17222,572.07263 c 3.1311,0 5.6693,2.5382 5.6693,5.6693 0,3.1311 -2.5382,5.6693 -5.6693,5.6693 -3.131,0 -5.6692,-2.5382 -5.6692,-5.6693 0,-3.1311 2.5382,-5.6693 5.6692,-5.6693 z"
       id="path21509"
       inkscape:connector-curvature="0"
       sodipodi:nodetypes="ssscs" /><path
       style="fill:none;stroke:#ff0000;stroke-width:0.28346455;stroke-linecap:round;stroke-linejoin:miter;stroke-miterlimit:9.70873833;stroke-dasharray:none;stroke-opacity:1"
       d="m 875.90462,572.07263 c 3.131,0 5.6692,2.5382 5.6692,5.6693 0,3.1311 -2.5382,5.6693 -5.6692,5.6693 -3.1311,0 -5.6693,-2.5382 -5.6693,-5.6693 0,-3.1311 2.5382,-5.6693 5.6693,-5.6693 z"
       id="path21507"
       inkscape:connector-curvature="0"
       sodipodi:nodetypes="ssscs" /><path
       style="fill:none;stroke:#ff0000;stroke-width:0.28346455;stroke-linecap:round;stroke-linejoin:miter;stroke-miterlimit:9.70873833;stroke-dasharray:none;stroke-opacity:1"
       d="m 1017.6367,572.07263 c 3.1311,0 5.6693,2.5382 5.6693,5.6693 0,3.1311 -2.5382,5.6693 -5.6693,5.6693 -3.131,0 -5.6692,-2.5382 -5.6692,-5.6693 0,-3.1311 2.5382,-5.6693 5.6692,-5.6693 z"
       id="path21505"
       inkscape:connector-curvature="0"
       sodipodi:nodetypes="ssscs" /><path
       style="fill:none;stroke:#ff0000;stroke-width:0.28346455;stroke-linecap:round;stroke-linejoin:miter;stroke-miterlimit:9.70873833;stroke-dasharray:none;stroke-opacity:1"
       d="m 1159.3691,572.07263 c 3.131,0 5.6692,2.5382 5.6692,5.6693 0,3.1311 -2.5382,5.6693 -5.6692,5.6693 -3.1311,0 -5.6693,-2.5382 -5.6693,-5.6693 0,-3.1311 2.5382,-5.6693 5.6693,-5.6693 z"
       id="path21503"
       inkscape:connector-curvature="0"
       sodipodi:nodetypes="ssscs" /><path
       style="fill:none;stroke:#ff0000;stroke-width:0.28346455;stroke-linecap:round;stroke-linejoin:miter;stroke-miterlimit:9.70873833;stroke-dasharray:none;stroke-opacity:1"
       d="m 1301.1014,572.07263 c 3.131,0 5.6693,2.5382 5.6693,5.6693 0,3.1311 -2.5383,5.6693 -5.6693,5.6693 -3.1311,0 -5.6693,-2.5382 -5.6693,-5.6693 0,-3.1311 2.5382,-5.6693 5.6693,-5.6693 z"
       id="path21501"
       inkscape:connector-curvature="0"
       sodipodi:nodetypes="ssscs" /><path
       style="fill:none;stroke:#ff0000;stroke-width:0.28346455;stroke-linecap:round;stroke-linejoin:miter;stroke-miterlimit:9.70873833;stroke-dasharray:none;stroke-opacity:1"
       d="m 1442.8337,572.07263 c 3.131,0 5.6693,2.5382 5.6693,5.6693 0,3.1311 -2.5383,5.6693 -5.6693,5.6693 -3.1311,0 -5.6693,-2.5382 -5.6693,-5.6693 0,-3.1311 2.5382,-5.6693 5.6693,-5.6693 z"
       id="path21499"
       inkscape:connector-curvature="0"
       sodipodi:nodetypes="ssscs" /><path
       style="fill:none;stroke:#ff0000;stroke-width:0.28346455;stroke-linecap:round;stroke-linejoin:miter;stroke-miterlimit:9.70873833;stroke-dasharray:none;stroke-opacity:1"
       d="m 1584.566,572.07263 c 3.131,0 5.6693,2.5382 5.6693,5.6693 0,3.1311 -2.5383,5.6693 -5.6693,5.6693 -3.1311,0 -5.6693,-2.5382 -5.6693,-5.6693 0,-3.1311 2.5382,-5.6693 5.6693,-5.6693 z"
       id="path21497"
       inkscape:connector-curvature="0"
       sodipodi:nodetypes="ssscs" /><path
       style="fill:none;stroke:#ff0000;stroke-width:0.28346455;stroke-linecap:round;stroke-linejoin:miter;stroke-miterlimit:9.70873833;stroke-dasharray:none;stroke-opacity:1"
       d="m 167.24312,430.34043 c 3.131,0 5.6693,2.5383 5.6693,5.6693 0,3.1311 -2.5383,5.6693 -5.6693,5.6693 -3.1311,0 -5.6693,-2.5382 -5.6693,-5.6693 0,-3.131 2.5382,-5.6693 5.6693,-5.6693 z"
       id="path21487"
       inkscape:connector-curvature="0"
       sodipodi:nodetypes="ssscs" /><path
       style="fill:none;stroke:#ff0000;stroke-width:0.28346455;stroke-linecap:round;stroke-linejoin:miter;stroke-miterlimit:9.70873833;stroke-dasharray:none;stroke-opacity:1"
       d="m 308.97542,430.34043 c 3.131,0 5.6693,2.5383 5.6693,5.6693 0,3.1311 -2.5383,5.6693 -5.6693,5.6693 -3.1311,0 -5.6693,-2.5382 -5.6693,-5.6693 0,-3.131 2.5382,-5.6693 5.6693,-5.6693 z"
       id="path21485"
       inkscape:connector-curvature="0"
       sodipodi:nodetypes="ssscs" /><path
       style="fill:none;stroke:#ff0000;stroke-width:0.28346455;stroke-linecap:round;stroke-linejoin:miter;stroke-miterlimit:9.70873833;stroke-dasharray:none;stroke-opacity:1"
       d="m 450.70762,430.34043 c 3.1311,0 5.6693,2.5383 5.6693,5.6693 0,3.1311 -2.5382,5.6693 -5.6693,5.6693 -3.131,0 -5.6693,-2.5382 -5.6693,-5.6693 0,-3.131 2.5383,-5.6693 5.6693,-5.6693 z"
       id="path21483"
       inkscape:connector-curvature="0"
       sodipodi:nodetypes="ssscs" /><path
       style="fill:none;stroke:#ff0000;stroke-width:0.28346455;stroke-linecap:round;stroke-linejoin:miter;stroke-miterlimit:9.70873833;stroke-dasharray:none;stroke-opacity:1"
       d="m 592.43992,430.34043 c 3.1311,0 5.6693,2.5383 5.6693,5.6693 0,3.1311 -2.5382,5.6693 -5.6693,5.6693 -3.131,0 -5.6693,-2.5382 -5.6693,-5.6693 0,-3.131 2.5383,-5.6693 5.6693,-5.6693 z"
       id="path21481"
       inkscape:connector-curvature="0"
       sodipodi:nodetypes="ssscs" /><path
       style="fill:none;stroke:#ff0000;stroke-width:0.28346455;stroke-linecap:round;stroke-linejoin:miter;stroke-miterlimit:9.70873833;stroke-dasharray:none;stroke-opacity:1"
       d="m 734.17222,430.34043 c 3.1311,0 5.6693,2.5383 5.6693,5.6693 0,3.1311 -2.5382,5.6693 -5.6693,5.6693 -3.131,0 -5.6692,-2.5382 -5.6692,-5.6693 0,-3.131 2.5382,-5.6693 5.6692,-5.6693 z"
       id="path21479"
       inkscape:connector-curvature="0"
       sodipodi:nodetypes="ssscs" /><path
       style="fill:none;stroke:#ff0000;stroke-width:0.28346455;stroke-linecap:round;stroke-linejoin:miter;stroke-miterlimit:9.70873833;stroke-dasharray:none;stroke-opacity:1"
       d="m 875.90462,430.34043 c 3.131,0 5.6692,2.5383 5.6692,5.6693 0,3.1311 -2.5382,5.6693 -5.6692,5.6693 -3.1311,0 -5.6693,-2.5382 -5.6693,-5.6693 0,-3.131 2.5382,-5.6693 5.6693,-5.6693 z"
       id="path21477"
       inkscape:connector-curvature="0"
       sodipodi:nodetypes="ssscs" /><path
       style="fill:none;stroke:#ff0000;stroke-width:0.28346455;stroke-linecap:round;stroke-linejoin:miter;stroke-miterlimit:9.70873833;stroke-dasharray:none;stroke-opacity:1"
       d="m 1017.6367,430.34043 c 3.1311,0 5.6693,2.5383 5.6693,5.6693 0,3.1311 -2.5382,5.6693 -5.6693,5.6693 -3.131,0 -5.6692,-2.5382 -5.6692,-5.6693 0,-3.131 2.5382,-5.6693 5.6692,-5.6693 z"
       id="path21475"
       inkscape:connector-curvature="0"
       sodipodi:nodetypes="ssscs" /><path
       style="fill:none;stroke:#ff0000;stroke-width:0.28346455;stroke-linecap:round;stroke-linejoin:miter;stroke-miterlimit:9.70873833;stroke-dasharray:none;stroke-opacity:1"
       d="m 1159.3691,430.34043 c 3.131,0 5.6692,2.5383 5.6692,5.6693 0,3.1311 -2.5382,5.6693 -5.6692,5.6693 -3.1311,0 -5.6693,-2.5382 -5.6693,-5.6693 0,-3.131 2.5382,-5.6693 5.6693,-5.6693 z"
       id="path21473"
       inkscape:connector-curvature="0"
       sodipodi:nodetypes="ssscs" /><path
       style="fill:none;stroke:#ff0000;stroke-width:0.28346455;stroke-linecap:round;stroke-linejoin:miter;stroke-miterlimit:9.70873833;stroke-dasharray:none;stroke-opacity:1"
       d="m 1301.1014,430.34043 c 3.131,0 5.6693,2.5383 5.6693,5.6693 0,3.1311 -2.5383,5.6693 -5.6693,5.6693 -3.1311,0 -5.6693,-2.5382 -5.6693,-5.6693 0,-3.131 2.5382,-5.6693 5.6693,-5.6693 z"
       id="path21471"
       inkscape:connector-curvature="0"
       sodipodi:nodetypes="ssscs" /><path
       style="fill:none;stroke:#ff0000;stroke-width:0.28346455;stroke-linecap:round;stroke-linejoin:miter;stroke-miterlimit:9.70873833;stroke-dasharray:none;stroke-opacity:1"
       d="m 1442.8337,430.34043 c 3.131,0 5.6693,2.5383 5.6693,5.6693 0,3.1311 -2.5383,5.6693 -5.6693,5.6693 -3.1311,0 -5.6693,-2.5382 -5.6693,-5.6693 0,-3.131 2.5382,-5.6693 5.6693,-5.6693 z"
       id="path21469"
       inkscape:connector-curvature="0"
       sodipodi:nodetypes="ssscs" /><path
       style="fill:none;stroke:#ff0000;stroke-width:0.28346455;stroke-linecap:round;stroke-linejoin:miter;stroke-miterlimit:9.70873833;stroke-dasharray:none;stroke-opacity:1"
       d="m 1584.566,430.34043 c 3.131,0 5.6693,2.5383 5.6693,5.6693 0,3.1311 -2.5383,5.6693 -5.6693,5.6693 -3.1311,0 -5.6693,-2.5382 -5.6693,-5.6693 0,-3.131 2.5382,-5.6693 5.6693,-5.6693 z"
       id="path21467"
       inkscape:connector-curvature="0"
       sodipodi:nodetypes="ssscs" /><path
       style="fill:none;stroke:#ff0000;stroke-width:0.28346455;stroke-linecap:round;stroke-linejoin:miter;stroke-miterlimit:9.70873833;stroke-dasharray:none;stroke-opacity:1"
       d="m 167.24312,288.60803 c 3.131,0 5.6693,2.5382 5.6693,5.6693 0,3.1311 -2.5383,5.6693 -5.6693,5.6693 -3.1311,0 -5.6693,-2.5382 -5.6693,-5.6693 0,-3.1311 2.5382,-5.6693 5.6693,-5.6693 z"
       id="path21457"
       inkscape:connector-curvature="0"
       sodipodi:nodetypes="ssscs" /><path
       style="fill:none;stroke:#ff0000;stroke-width:0.28346455;stroke-linecap:round;stroke-linejoin:miter;stroke-miterlimit:9.70873833;stroke-dasharray:none;stroke-opacity:1"
       d="m 308.97542,288.60803 c 3.131,0 5.6693,2.5382 5.6693,5.6693 0,3.1311 -2.5383,5.6693 -5.6693,5.6693 -3.1311,0 -5.6693,-2.5382 -5.6693,-5.6693 0,-3.1311 2.5382,-5.6693 5.6693,-5.6693 z"
       id="path21455"
       inkscape:connector-curvature="0"
       sodipodi:nodetypes="ssscs" /><path
       style="fill:none;stroke:#ff0000;stroke-width:0.28346455;stroke-linecap:round;stroke-linejoin:miter;stroke-miterlimit:9.70873833;stroke-dasharray:none;stroke-opacity:1"
       d="m 450.70762,288.60803 c 3.1311,0 5.6693,2.5382 5.6693,5.6693 0,3.1311 -2.5382,5.6693 -5.6693,5.6693 -3.131,0 -5.6693,-2.5382 -5.6693,-5.6693 0,-3.1311 2.5383,-5.6693 5.6693,-5.6693 z"
       id="path21453"
       inkscape:connector-curvature="0"
       sodipodi:nodetypes="ssscs" /><path
       style="fill:none;stroke:#ff0000;stroke-width:0.28346455;stroke-linecap:round;stroke-linejoin:miter;stroke-miterlimit:9.70873833;stroke-dasharray:none;stroke-opacity:1"
       d="m 592.43992,288.60803 c 3.1311,0 5.6693,2.5382 5.6693,5.6693 0,3.1311 -2.5382,5.6693 -5.6693,5.6693 -3.131,0 -5.6693,-2.5382 -5.6693,-5.6693 0,-3.1311 2.5383,-5.6693 5.6693,-5.6693 z"
       id="path21451"
       inkscape:connector-curvature="0"
       sodipodi:nodetypes="ssscs" /><path
       style="fill:none;stroke:#ff0000;stroke-width:0.28346455;stroke-linecap:round;stroke-linejoin:miter;stroke-miterlimit:9.70873833;stroke-dasharray:none;stroke-opacity:1"
       d="m 734.17222,288.60803 c 3.1311,0 5.6693,2.5382 5.6693,5.6693 0,3.1311 -2.5382,5.6693 -5.6693,5.6693 -3.131,0 -5.6692,-2.5382 -5.6692,-5.6693 0,-3.1311 2.5382,-5.6693 5.6692,-5.6693 z"
       id="path21449"
       inkscape:connector-curvature="0"
       sodipodi:nodetypes="ssscs" /><path
       style="fill:none;stroke:#ff0000;stroke-width:0.28346455;stroke-linecap:round;stroke-linejoin:miter;stroke-miterlimit:9.70873833;stroke-dasharray:none;stroke-opacity:1"
       d="m 875.90462,288.60803 c 3.131,0 5.6692,2.5382 5.6692,5.6693 0,3.1311 -2.5382,5.6693 -5.6692,5.6693 -3.1311,0 -5.6693,-2.5382 -5.6693,-5.6693 0,-3.1311 2.5382,-5.6693 5.6693,-5.6693 z"
       id="path21447"
       inkscape:connector-curvature="0"
       sodipodi:nodetypes="ssscs" /><path
       style="fill:none;stroke:#ff0000;stroke-width:0.28346455;stroke-linecap:round;stroke-linejoin:miter;stroke-miterlimit:9.70873833;stroke-dasharray:none;stroke-opacity:1"
       d="m 1017.6367,288.60803 c 3.1311,0 5.6693,2.5382 5.6693,5.6693 0,3.1311 -2.5382,5.6693 -5.6693,5.6693 -3.131,0 -5.6692,-2.5382 -5.6692,-5.6693 0,-3.1311 2.5382,-5.6693 5.6692,-5.6693 z"
       id="path21445"
       inkscape:connector-curvature="0"
       sodipodi:nodetypes="ssscs" /><path
       style="fill:none;stroke:#ff0000;stroke-width:0.28346455;stroke-linecap:round;stroke-linejoin:miter;stroke-miterlimit:9.70873833;stroke-dasharray:none;stroke-opacity:1"
       d="m 1159.3691,288.60803 c 3.131,0 5.6692,2.5382 5.6692,5.6693 0,3.1311 -2.5382,5.6693 -5.6692,5.6693 -3.1311,0 -5.6693,-2.5382 -5.6693,-5.6693 0,-3.1311 2.5382,-5.6693 5.6693,-5.6693 z"
       id="path21443"
       inkscape:connector-curvature="0"
       sodipodi:nodetypes="ssscs" /><path
       style="fill:none;stroke:#ff0000;stroke-width:0.28346455;stroke-linecap:round;stroke-linejoin:miter;stroke-miterlimit:9.70873833;stroke-dasharray:none;stroke-opacity:1"
       d="m 1301.1014,288.60803 c 3.131,0 5.6693,2.5382 5.6693,5.6693 0,3.1311 -2.5383,5.6693 -5.6693,5.6693 -3.1311,0 -5.6693,-2.5382 -5.6693,-5.6693 0,-3.1311 2.5382,-5.6693 5.6693,-5.6693 z"
       id="path21441"
       inkscape:connector-curvature="0"
       sodipodi:nodetypes="ssscs" /><path
       style="fill:none;stroke:#ff0000;stroke-width:0.28346455;stroke-linecap:round;stroke-linejoin:miter;stroke-miterlimit:9.70873833;stroke-dasharray:none;stroke-opacity:1"
       d="m 1442.8337,288.60803 c 3.131,0 5.6693,2.5382 5.6693,5.6693 0,3.1311 -2.5383,5.6693 -5.6693,5.6693 -3.1311,0 -5.6693,-2.5382 -5.6693,-5.6693 0,-3.1311 2.5382,-5.6693 5.6693,-5.6693 z"
       id="path21439"
       inkscape:connector-curvature="0"
       sodipodi:nodetypes="ssscs" /><path
       style="fill:none;stroke:#ff0000;stroke-width:0.28346455;stroke-linecap:round;stroke-linejoin:miter;stroke-miterlimit:9.70873833;stroke-dasharray:none;stroke-opacity:1"
       d="m 1584.566,288.60803 c 3.131,0 5.6693,2.5382 5.6693,5.6693 0,3.1311 -2.5383,5.6693 -5.6693,5.6693 -3.1311,0 -5.6693,-2.5382 -5.6693,-5.6693 0,-3.1311 2.5382,-5.6693 5.6693,-5.6693 z"
       id="path21437"
       inkscape:connector-curvature="0"
       sodipodi:nodetypes="ssscs" /><path
       style="fill:none;stroke:#ff0000;stroke-width:0.28346455;stroke-linecap:round;stroke-linejoin:miter;stroke-miterlimit:9.70873833;stroke-dasharray:none;stroke-opacity:1"
       d="m 167.24312,146.87583 c 3.131,0 5.6693,2.5382 5.6693,5.6693 0,3.1311 -2.5383,5.6693 -5.6693,5.6693 -3.1311,0 -5.6693,-2.5382 -5.6693,-5.6693 0,-3.1311 2.5382,-5.6693 5.6693,-5.6693 z"
       id="path21427"
       inkscape:connector-curvature="0"
       sodipodi:nodetypes="ssscs" /><path
       style="fill:none;stroke:#ff0000;stroke-width:0.28346455;stroke-linecap:round;stroke-linejoin:miter;stroke-miterlimit:9.70873833;stroke-dasharray:none;stroke-opacity:1"
       d="m 308.97542,146.87583 c 3.131,0 5.6693,2.5382 5.6693,5.6693 0,3.1311 -2.5383,5.6693 -5.6693,5.6693 -3.1311,0 -5.6693,-2.5382 -5.6693,-5.6693 0,-3.1311 2.5382,-5.6693 5.6693,-5.6693 z"
       id="path21425"
       inkscape:connector-curvature="0"
       sodipodi:nodetypes="ssscs" /><path
       style="fill:none;stroke:#ff0000;stroke-width:0.28346455;stroke-linecap:round;stroke-linejoin:miter;stroke-miterlimit:9.70873833;stroke-dasharray:none;stroke-opacity:1"
       d="m 450.70762,146.87583 c 3.1311,0 5.6693,2.5382 5.6693,5.6693 0,3.1311 -2.5382,5.6693 -5.6693,5.6693 -3.131,0 -5.6693,-2.5382 -5.6693,-5.6693 0,-3.1311 2.5383,-5.6693 5.6693,-5.6693 z"
       id="path21423"
       inkscape:connector-curvature="0"
       sodipodi:nodetypes="ssscs" /><path
       style="fill:none;stroke:#ff0000;stroke-width:0.28346455;stroke-linecap:round;stroke-linejoin:miter;stroke-miterlimit:9.70873833;stroke-dasharray:none;stroke-opacity:1"
       d="m 592.43992,146.87583 c 3.1311,0 5.6693,2.5382 5.6693,5.6693 0,3.1311 -2.5382,5.6693 -5.6693,5.6693 -3.131,0 -5.6693,-2.5382 -5.6693,-5.6693 0,-3.1311 2.5383,-5.6693 5.6693,-5.6693 z"
       id="path21421"
       inkscape:connector-curvature="0"
       sodipodi:nodetypes="ssscs" /><path
       style="fill:none;stroke:#ff0000;stroke-width:0.28346455;stroke-linecap:round;stroke-linejoin:miter;stroke-miterlimit:9.70873833;stroke-dasharray:none;stroke-opacity:1"
       d="m 734.17222,146.87583 c 3.1311,0 5.6693,2.5382 5.6693,5.6693 0,3.1311 -2.5382,5.6693 -5.6693,5.6693 -3.131,0 -5.6692,-2.5382 -5.6692,-5.6693 0,-3.1311 2.5382,-5.6693 5.6692,-5.6693 z"
       id="path21419"
       inkscape:connector-curvature="0"
       sodipodi:nodetypes="ssscs" /><path
       style="fill:none;stroke:#ff0000;stroke-width:0.28346455;stroke-linecap:round;stroke-linejoin:miter;stroke-miterlimit:9.70873833;stroke-dasharray:none;stroke-opacity:1"
       d="m 875.90462,146.87583 c 3.131,0 5.6692,2.5382 5.6692,5.6693 0,3.1311 -2.5382,5.6693 -5.6692,5.6693 -3.1311,0 -5.6693,-2.5382 -5.6693,-5.6693 0,-3.1311 2.5382,-5.6693 5.6693,-5.6693 z"
       id="path21417"
       inkscape:connector-curvature="0"
       sodipodi:nodetypes="ssscs" /><path
       style="fill:none;stroke:#ff0000;stroke-width:0.28346455;stroke-linecap:round;stroke-linejoin:miter;stroke-miterlimit:9.70873833;stroke-dasharray:none;stroke-opacity:1"
       d="m 1017.6367,146.87583 c 3.1311,0 5.6693,2.5382 5.6693,5.6693 0,3.1311 -2.5382,5.6693 -5.6693,5.6693 -3.131,0 -5.6692,-2.5382 -5.6692,-5.6693 0,-3.1311 2.5382,-5.6693 5.6692,-5.6693 z"
       id="path21415"
       inkscape:connector-curvature="0"
       sodipodi:nodetypes="ssscs" /><path
       style="fill:none;stroke:#ff0000;stroke-width:0.28346455;stroke-linecap:round;stroke-linejoin:miter;stroke-miterlimit:9.70873833;stroke-dasharray:none;stroke-opacity:1"
       d="m 1159.3691,146.87583 c 3.131,0 5.6692,2.5382 5.6692,5.6693 0,3.1311 -2.5382,5.6693 -5.6692,5.6693 -3.1311,0 -5.6693,-2.5382 -5.6693,-5.6693 0,-3.1311 2.5382,-5.6693 5.6693,-5.6693 z"
       id="path21413"
       inkscape:connector-curvature="0"
       sodipodi:nodetypes="ssscs" /><path
       style="fill:none;stroke:#ff0000;stroke-width:0.28346455;stroke-linecap:round;stroke-linejoin:miter;stroke-miterlimit:9.70873833;stroke-dasharray:none;stroke-opacity:1"
       d="m 1301.1014,146.87583 c 3.131,0 5.6693,2.5382 5.6693,5.6693 0,3.1311 -2.5383,5.6693 -5.6693,5.6693 -3.1311,0 -5.6693,-2.5382 -5.6693,-5.6693 0,-3.1311 2.5382,-5.6693 5.6693,-5.6693 z"
       id="path21411"
       inkscape:connector-curvature="0"
       sodipodi:nodetypes="ssscs" /><path
       style="fill:none;stroke:#ff0000;stroke-width:0.28346455;stroke-linecap:round;stroke-linejoin:miter;stroke-miterlimit:9.70873833;stroke-dasharray:none;stroke-opacity:1"
       d="m 1442.8337,146.87583 c 3.131,0 5.6693,2.5382 5.6693,5.6693 0,3.1311 -2.5383,5.6693 -5.6693,5.6693 -3.1311,0 -5.6693,-2.5382 -5.6693,-5.6693 0,-3.1311 2.5382,-5.6693 5.6693,-5.6693 z"
       id="path21409"
       inkscape:connector-curvature="0"
       sodipodi:nodetypes="ssscs" /><path
       style="fill:none;stroke:#ff0000;stroke-width:0.28346455;stroke-linecap:round;stroke-linejoin:miter;stroke-miterlimit:9.70873833;stroke-dasharray:none;stroke-opacity:1"
       d="m 1584.566,146.87583 c 3.131,0 5.6693,2.5382 5.6693,5.6693 0,3.1311 -2.5383,5.6693 -5.6693,5.6693 -3.1311,0 -5.6693,-2.5382 -5.6693,-5.6693 0,-3.1311 2.5382,-5.6693 5.6693,-5.6693 z"
       id="path21407"
       inkscape:connector-curvature="0"
       sodipodi:nodetypes="ssscs" /><path
       style="fill:none;stroke:#ff0000;stroke-width:0.28346455;stroke-linecap:round;stroke-linejoin:miter;stroke-miterlimit:9.70873833;stroke-dasharray:none;stroke-opacity:1"
       d="m 1669.6053,464.35623 h -17.0067 v -226.7716 h 17.0067 V 27.820834 h -56.6929 v -17.0079 l -226.7717,0 v 17.0079 h -226.7716 v -17.0079 l -226.77168,0 v 17.0079 h -226.7716 v -17.0079 l -226.7717,0 v 17.0079 h -226.7717 v -17.0079 H 42.51872 V 237.58463 h -17.0079 v 226.7716 h 17.0079 v 226.7716 h -17.0079 l 0.0024,137.62857 H 260.38378 v -17.0079 h 234.8707 v 17.0079 h 234.8706 v -17.0079 h 234.8707 v 17.0079 h 234.87052 v -17.0079 h 234.8706 l 0,17.0079 h 217.8628 l -0,-137.62857 h 17.0067 v -113.3858 z"
       id="path21293"
       inkscape:connector-curvature="0"
       sodipodi:nodetypes="cccccccccccccccccccccccccccccccccccccccccccc" /><flowRoot
       xml:space="preserve"
       id="flowRoot20647"
       style="fill:black;fill-opacity:1;stroke:#ff0000;font-family:sans-serif;font-style:normal;font-weight:normal;font-size:42.66666667px;line-height:1.25;letter-spacing:0px;word-spacing:0px;stroke-opacity:1;stroke-width:0.28346456;stroke-miterlimit:9.70873833;stroke-dasharray:none"><flowRegion
         id="flowRegion20649"
         style="font-size:42.66666667px;stroke:#ff0000;stroke-opacity:1;stroke-width:0.28346456;stroke-miterlimit:9.70873833;stroke-dasharray:none"><rect
           id="rect20651"
           width="362.15842"
           height="433.37076"
           x="110.30865"
           y="59.055973"
           style="font-size:42.66666667px;stroke:#ff0000;stroke-opacity:1;stroke-width:0.28346456;stroke-miterlimit:9.70873833;stroke-dasharray:none" /></flowRegion><flowPara
         id="flowPara20653" /></flowRoot><flowRoot
       xml:space="preserve"
       id="flowRoot20663"
       style="fill:black;fill-opacity:1;stroke:#ff0000;font-family:sans-serif;font-style:normal;font-weight:normal;font-size:40px;line-height:1.25;letter-spacing:0px;word-spacing:0px;stroke-opacity:1;stroke-width:0.28346456;stroke-miterlimit:9.70873833;stroke-dasharray:none"><flowRegion
         id="flowRegion20665"
         style="stroke:#ff0000;stroke-opacity:1;stroke-width:0.28346456;stroke-miterlimit:9.70873833;stroke-dasharray:none"><rect
           id="rect20667"
           width="157.24007"
           height="170.1286"
           x="-48.976414"
           y="-424.36499"
           style="stroke:#ff0000;stroke-opacity:1;stroke-width:0.28346456;stroke-miterlimit:9.70873833;stroke-dasharray:none" /></flowRegion><flowPara
         id="flowPara20669" /></flowRoot><flowRoot
       xml:space="preserve"
       id="flowRoot22525"
       style="font-style:normal;font-weight:normal;font-size:85.33333588px;line-height:1.25;font-family:sans-serif;letter-spacing:0px;word-spacing:0px;fill:none;fill-opacity:1;stroke:#0000ff;stroke-opacity:1;"
       transform="matrix(0,-0.74999998,-0.74999998,0,-32.151741,421.47638)"><flowRegion
         id="flowRegion22527"
         style="font-size:85.33333588px;fill:none;stroke:#0000ff;stroke-opacity:1;"><rect
           id="rect22529"
           width="275.22974"
           height="339.02469"
           x="-492.13263"
           y="-196.7225"
           style="font-size:85.33333588px;fill:none;stroke:#0000ff;stroke-opacity:1;" /></flowRegion><flowPara
         id="flowPara22531">5</flowPara></flowRoot></g></svg>