<?xml version="1.0" encoding="UTF-8" standalone="no"?>
<!-- Created with Inkscape (http://www.inkscape.org/) -->

<svg
   xmlns:dc="http://purl.org/dc/elements/1.1/"
   xmlns:cc="http://creativecommons.org/ns#"
   xmlns:rdf="http://www.w3.org/1999/02/22-rdf-syntax-ns#"
   xmlns:svg="http://www.w3.org/2000/svg"
   xmlns="http://www.w3.org/2000/svg"
   xmlns:sodipodi="http://sodipodi.sourceforge.net/DTD/sodipodi-0.dtd"
   xmlns:inkscape="http://www.inkscape.org/namespaces/inkscape"
   version="1.1"
   id="svg6612"
   xml:space="preserve"
   width="600mm"
   height="300mm"
   viewBox="0 0 2267.7165 1133.8582"
   sodipodi:docname="Back plate 3ML.svg"
   inkscape:version="0.92.4 (5da689c313, 2019-01-14)"><metadata
     id="metadata6618"><rdf:RDF><cc:Work
         rdf:about=""><dc:format>image/svg+xml</dc:format><dc:type
           rdf:resource="http://purl.org/dc/dcmitype/StillImage" /><dc:title /></cc:Work></rdf:RDF></metadata><defs
     id="defs6616" /><sodipodi:namedview
     pagecolor="#ffffff"
     bordercolor="#666666"
     borderopacity="1"
     objecttolerance="10"
     gridtolerance="10"
     guidetolerance="10"
     inkscape:pageopacity="0"
     inkscape:pageshadow="2"
     inkscape:window-width="1920"
     inkscape:window-height="1017"
     id="namedview6614"
     showgrid="false"
     units="mm"
     inkscape:document-units="mm"
     inkscape:zoom="0.40917969"
     inkscape:cx="1016.9401"
     inkscape:cy="341.05237"
     inkscape:window-x="-8"
     inkscape:window-y="-8"
     inkscape:window-maximized="1"
     inkscape:current-layer="g6620" /><g
     id="g6620"
     inkscape:groupmode="layer"
     inkscape:label="frame"
     transform="matrix(1.3333333,0,0,-1.3333333,0,1133.8584)"><path
   style="fill:none;stroke:#ff0000;stroke-width:0.28346455;stroke-linecap:round;stroke-linejoin:miter;stroke-miterlimit:10;stroke-dasharray:none;stroke-opacity:1"
   d="m 1678.1648,533.95522 h -17.0079 v 226.77159 h -39.685 v -17.0079 h -226.7717 v 17.0079 h -226.7716 v -17.0079 H 941.15686 v 17.0079 h -226.7716 v -17.0079 h -226.7717 v 17.0079 h -226.7717 v -17.0079 H 34.070264 V 533.95522 h 17.0079 V 307.1835 h -17.0079 V 125.7662 H 266.51116 v -17.0079 h 232.441 v 17.0079 h 232.441 v -17.0079 h 232.4409 v 17.0079 H 1196.275 v -17.0079 h 232.441 v 17.0079 h 232.4409 v 181.4173 h 17.0079 v 121.88981 z"
   id="path936"
   inkscape:connector-curvature="0"
   sodipodi:nodetypes="cccccccccccccccccccccccccccccccccccccccc" /><path
   style="fill:none;stroke:#ff0000;stroke-width:0.28346455;stroke-linecap:round;stroke-linejoin:miter;stroke-miterlimit:10;stroke-dasharray:none;stroke-opacity:1"
   d="m 1593.1255,188.1284 c 3.131,0 5.6693,2.5382 5.6693,5.6693 0,3.131 -2.5383,5.6693 -5.6693,5.6693 -3.1311,0 -5.6693,-2.5383 -5.6693,-5.6693 0,-3.1311 2.5382,-5.6693 5.6693,-5.6693 z"
   id="path918"
   inkscape:connector-curvature="0"
   sodipodi:nodetypes="ssscs" /><path
   style="fill:none;stroke:#ff0000;stroke-width:0.28346455;stroke-linecap:round;stroke-linejoin:miter;stroke-miterlimit:10;stroke-dasharray:none;stroke-opacity:1"
   d="m 1451.3932,188.1284 c 3.131,0 5.6693,2.5382 5.6693,5.6693 0,3.131 -2.5383,5.6693 -5.6693,5.6693 -3.1311,0 -5.6693,-2.5383 -5.6693,-5.6693 0,-3.1311 2.5382,-5.6693 5.6693,-5.6693 z"
   id="path916"
   inkscape:connector-curvature="0"
   sodipodi:nodetypes="ssscs" /><path
   style="fill:none;stroke:#ff0000;stroke-width:0.28346455;stroke-linecap:round;stroke-linejoin:miter;stroke-miterlimit:10;stroke-dasharray:none;stroke-opacity:1"
   d="m 1309.6609,188.1284 c 3.131,0 5.6693,2.5382 5.6693,5.6693 0,3.131 -2.5383,5.6693 -5.6693,5.6693 -3.1311,0 -5.6693,-2.5383 -5.6693,-5.6693 0,-3.1311 2.5382,-5.6693 5.6693,-5.6693 z"
   id="path914"
   inkscape:connector-curvature="0"
   sodipodi:nodetypes="ssscs" /><path
   style="fill:none;stroke:#ff0000;stroke-width:0.28346455;stroke-linecap:round;stroke-linejoin:miter;stroke-miterlimit:10;stroke-dasharray:none;stroke-opacity:1"
   d="m 1167.9286,188.1284 c 3.131,0 5.6692,2.5382 5.6692,5.6693 0,3.131 -2.5382,5.6693 -5.6692,5.6693 -3.1311,0 -5.6693,-2.5383 -5.6693,-5.6693 0,-3.1311 2.5382,-5.6693 5.6693,-5.6693 z"
   id="path912"
   inkscape:connector-curvature="0"
   sodipodi:nodetypes="ssscs" /><path
   style="fill:none;stroke:#ff0000;stroke-width:0.28346455;stroke-linecap:round;stroke-linejoin:miter;stroke-miterlimit:10;stroke-dasharray:none;stroke-opacity:1"
   d="m 1026.1962,188.1284 c 3.1311,0 5.6693,2.5382 5.6693,5.6693 0,3.131 -2.5382,5.6693 -5.6693,5.6693 -3.131,0 -5.6692,-2.5383 -5.6692,-5.6693 0,-3.1311 2.5382,-5.6693 5.6692,-5.6693 z"
   id="path910"
   inkscape:connector-curvature="0"
   sodipodi:nodetypes="ssscs" /><path
   style="fill:none;stroke:#ff0000;stroke-width:0.28346455;stroke-linecap:round;stroke-linejoin:miter;stroke-miterlimit:10;stroke-dasharray:none;stroke-opacity:1"
   d="m 884.46406,188.1284 c 3.131,0 5.6692,2.5382 5.6692,5.6693 0,3.131 -2.5382,5.6693 -5.6692,5.6693 -3.1311,0 -5.6693,-2.5383 -5.6693,-5.6693 0,-3.1311 2.5382,-5.6693 5.6693,-5.6693 z"
   id="path908"
   inkscape:connector-curvature="0"
   sodipodi:nodetypes="ssscs" /><path
   style="fill:none;stroke:#ff0000;stroke-width:0.28346455;stroke-linecap:round;stroke-linejoin:miter;stroke-miterlimit:10;stroke-dasharray:none;stroke-opacity:1"
   d="m 742.73166,188.1284 c 3.1311,0 5.6693,2.5382 5.6693,5.6693 0,3.131 -2.5382,5.6693 -5.6693,5.6693 -3.131,0 -5.6692,-2.5383 -5.6692,-5.6693 0,-3.1311 2.5382,-5.6693 5.6692,-5.6693 z"
   id="path906"
   inkscape:connector-curvature="0"
   sodipodi:nodetypes="ssscs" /><path
   style="fill:none;stroke:#ff0000;stroke-width:0.28346455;stroke-linecap:round;stroke-linejoin:miter;stroke-miterlimit:10;stroke-dasharray:none;stroke-opacity:1"
   d="m 600.99936,188.1284 c 3.1311,0 5.6693,2.5382 5.6693,5.6693 0,3.131 -2.5382,5.6693 -5.6693,5.6693 -3.131,0 -5.6693,-2.5383 -5.6693,-5.6693 0,-3.1311 2.5383,-5.6693 5.6693,-5.6693 z"
   id="path904"
   inkscape:connector-curvature="0"
   sodipodi:nodetypes="ssscs" /><path
   style="fill:none;stroke:#ff0000;stroke-width:0.28346455;stroke-linecap:round;stroke-linejoin:miter;stroke-miterlimit:10;stroke-dasharray:none;stroke-opacity:1"
   d="m 459.26706,188.1284 c 3.1311,0 5.6693,2.5382 5.6693,5.6693 0,3.131 -2.5382,5.6693 -5.6693,5.6693 -3.131,0 -5.6693,-2.5383 -5.6693,-5.6693 0,-3.1311 2.5383,-5.6693 5.6693,-5.6693 z"
   id="path902"
   inkscape:connector-curvature="0"
   sodipodi:nodetypes="ssscs" /><path
   style="fill:none;stroke:#ff0000;stroke-width:0.28346455;stroke-linecap:round;stroke-linejoin:miter;stroke-miterlimit:10;stroke-dasharray:none;stroke-opacity:1"
   d="m 317.53486,188.1284 c 3.131,0 5.6693,2.5382 5.6693,5.6693 0,3.131 -2.5383,5.6693 -5.6693,5.6693 -3.1311,0 -5.6693,-2.5383 -5.6693,-5.6693 0,-3.1311 2.5382,-5.6693 5.6693,-5.6693 z"
   id="path900"
   inkscape:connector-curvature="0"
   sodipodi:nodetypes="ssscs" /><path
   style="fill:none;stroke:#ff0000;stroke-width:0.28346455;stroke-linecap:round;stroke-linejoin:miter;stroke-miterlimit:10;stroke-dasharray:none;stroke-opacity:1"
   d="m 175.80256,188.1284 c 3.131,0 5.6693,2.5382 5.6693,5.6693 0,3.131 -2.5383,5.6693 -5.6693,5.6693 -3.1311,0 -5.6693,-2.5383 -5.6693,-5.6693 0,-3.1311 2.5382,-5.6693 5.6693,-5.6693 z"
   id="path898"
   inkscape:connector-curvature="0"
   sodipodi:nodetypes="ssscs" /><path
   style="fill:none;stroke:#ff0000;stroke-width:0.28346455;stroke-linecap:round;stroke-linejoin:miter;stroke-miterlimit:10;stroke-dasharray:none;stroke-opacity:1"
   d="m 1593.1255,329.8607 c 3.131,0 5.6693,2.5382 5.6693,5.6693 0,3.131 -2.5383,5.6693 -5.6693,5.6693 -3.1311,0 -5.6693,-2.5383 -5.6693,-5.6693 0,-3.1311 2.5382,-5.6693 5.6693,-5.6693 z"
   id="path896"
   inkscape:connector-curvature="0"
   sodipodi:nodetypes="ssscs" /><path
   style="fill:none;stroke:#ff0000;stroke-width:0.28346455;stroke-linecap:round;stroke-linejoin:miter;stroke-miterlimit:10;stroke-dasharray:none;stroke-opacity:1"
   d="m 1451.3932,329.8607 c 3.131,0 5.6693,2.5382 5.6693,5.6693 0,3.131 -2.5383,5.6693 -5.6693,5.6693 -3.1311,0 -5.6693,-2.5383 -5.6693,-5.6693 0,-3.1311 2.5382,-5.6693 5.6693,-5.6693 z"
   id="path894"
   inkscape:connector-curvature="0"
   sodipodi:nodetypes="ssscs" /><path
   style="fill:none;stroke:#ff0000;stroke-width:0.28346455;stroke-linecap:round;stroke-linejoin:miter;stroke-miterlimit:10;stroke-dasharray:none;stroke-opacity:1"
   d="m 1309.6609,329.8607 c 3.131,0 5.6693,2.5382 5.6693,5.6693 0,3.131 -2.5383,5.6693 -5.6693,5.6693 -3.1311,0 -5.6693,-2.5383 -5.6693,-5.6693 0,-3.1311 2.5382,-5.6693 5.6693,-5.6693 z"
   id="path892"
   inkscape:connector-curvature="0"
   sodipodi:nodetypes="ssscs" /><path
   style="fill:none;stroke:#ff0000;stroke-width:0.28346455;stroke-linecap:round;stroke-linejoin:miter;stroke-miterlimit:10;stroke-dasharray:none;stroke-opacity:1"
   d="m 1167.9286,329.8607 c 3.131,0 5.6692,2.5382 5.6692,5.6693 0,3.131 -2.5382,5.6693 -5.6692,5.6693 -3.1311,0 -5.6693,-2.5383 -5.6693,-5.6693 0,-3.1311 2.5382,-5.6693 5.6693,-5.6693 z"
   id="path890"
   inkscape:connector-curvature="0"
   sodipodi:nodetypes="ssscs" /><path
   style="fill:none;stroke:#ff0000;stroke-width:0.28346455;stroke-linecap:round;stroke-linejoin:miter;stroke-miterlimit:10;stroke-dasharray:none;stroke-opacity:1"
   d="m 1026.1962,329.8607 c 3.1311,0 5.6693,2.5382 5.6693,5.6693 0,3.131 -2.5382,5.6693 -5.6693,5.6693 -3.131,0 -5.6692,-2.5383 -5.6692,-5.6693 0,-3.1311 2.5382,-5.6693 5.6692,-5.6693 z"
   id="path888"
   inkscape:connector-curvature="0"
   sodipodi:nodetypes="ssscs" /><path
   style="fill:none;stroke:#ff0000;stroke-width:0.28346455;stroke-linecap:round;stroke-linejoin:miter;stroke-miterlimit:10;stroke-dasharray:none;stroke-opacity:1"
   d="m 884.46406,329.8607 c 3.131,0 5.6692,2.5382 5.6692,5.6693 0,3.131 -2.5382,5.6693 -5.6692,5.6693 -3.1311,0 -5.6693,-2.5383 -5.6693,-5.6693 0,-3.1311 2.5382,-5.6693 5.6693,-5.6693 z"
   id="path886"
   inkscape:connector-curvature="0"
   sodipodi:nodetypes="ssscs" /><path
   style="fill:none;stroke:#ff0000;stroke-width:0.28346455;stroke-linecap:round;stroke-linejoin:miter;stroke-miterlimit:10;stroke-dasharray:none;stroke-opacity:1"
   d="m 742.73166,329.8607 c 3.1311,0 5.6693,2.5382 5.6693,5.6693 0,3.131 -2.5382,5.6693 -5.6693,5.6693 -3.131,0 -5.6692,-2.5383 -5.6692,-5.6693 0,-3.1311 2.5382,-5.6693 5.6692,-5.6693 z"
   id="path884"
   inkscape:connector-curvature="0"
   sodipodi:nodetypes="ssscs" /><path
   style="fill:none;stroke:#ff0000;stroke-width:0.28346455;stroke-linecap:round;stroke-linejoin:miter;stroke-miterlimit:10;stroke-dasharray:none;stroke-opacity:1"
   d="m 600.99936,329.8607 c 3.1311,0 5.6693,2.5382 5.6693,5.6693 0,3.131 -2.5382,5.6693 -5.6693,5.6693 -3.131,0 -5.6693,-2.5383 -5.6693,-5.6693 0,-3.1311 2.5383,-5.6693 5.6693,-5.6693 z"
   id="path882"
   inkscape:connector-curvature="0"
   sodipodi:nodetypes="ssscs" /><path
   style="fill:none;stroke:#ff0000;stroke-width:0.28346455;stroke-linecap:round;stroke-linejoin:miter;stroke-miterlimit:10;stroke-dasharray:none;stroke-opacity:1"
   d="m 459.26706,329.8607 c 3.1311,0 5.6693,2.5382 5.6693,5.6693 0,3.131 -2.5382,5.6693 -5.6693,5.6693 -3.131,0 -5.6693,-2.5383 -5.6693,-5.6693 0,-3.1311 2.5383,-5.6693 5.6693,-5.6693 z"
   id="path880"
   inkscape:connector-curvature="0"
   sodipodi:nodetypes="ssscs" /><path
   style="fill:none;stroke:#ff0000;stroke-width:0.28346455;stroke-linecap:round;stroke-linejoin:miter;stroke-miterlimit:10;stroke-dasharray:none;stroke-opacity:1"
   d="m 317.53486,329.8607 c 3.131,0 5.6693,2.5382 5.6693,5.6693 0,3.131 -2.5383,5.6693 -5.6693,5.6693 -3.1311,0 -5.6693,-2.5383 -5.6693,-5.6693 0,-3.1311 2.5382,-5.6693 5.6693,-5.6693 z"
   id="path878"
   inkscape:connector-curvature="0"
   sodipodi:nodetypes="ssscs" /><path
   style="fill:none;stroke:#ff0000;stroke-width:0.28346455;stroke-linecap:round;stroke-linejoin:miter;stroke-miterlimit:10;stroke-dasharray:none;stroke-opacity:1"
   d="m 175.80256,329.8607 c 3.131,0 5.6693,2.5382 5.6693,5.6693 0,3.131 -2.5383,5.6693 -5.6693,5.6693 -3.1311,0 -5.6693,-2.5383 -5.6693,-5.6693 0,-3.1311 2.5382,-5.6693 5.6693,-5.6693 z"
   id="path876"
   inkscape:connector-curvature="0"
   sodipodi:nodetypes="ssscs" /><path
   style="fill:none;stroke:#ff0000;stroke-width:0.28346455;stroke-linecap:round;stroke-linejoin:miter;stroke-miterlimit:10;stroke-dasharray:none;stroke-opacity:1"
   d="m 1593.1255,471.59292 c 3.131,0 5.6693,2.5383 5.6693,5.6693 0,3.1311 -2.5383,5.6693 -5.6693,5.6693 -3.1311,0 -5.6693,-2.5382 -5.6693,-5.6693 0,-3.131 2.5382,-5.6693 5.6693,-5.6693 z"
   id="path874"
   inkscape:connector-curvature="0"
   sodipodi:nodetypes="ssscs" /><path
   style="fill:none;stroke:#ff0000;stroke-width:0.28346455;stroke-linecap:round;stroke-linejoin:miter;stroke-miterlimit:10;stroke-dasharray:none;stroke-opacity:1"
   d="m 1451.3932,471.59292 c 3.131,0 5.6693,2.5383 5.6693,5.6693 0,3.1311 -2.5383,5.6693 -5.6693,5.6693 -3.1311,0 -5.6693,-2.5382 -5.6693,-5.6693 0,-3.131 2.5382,-5.6693 5.6693,-5.6693 z"
   id="path872"
   inkscape:connector-curvature="0"
   sodipodi:nodetypes="ssscs" /><path
   style="fill:none;stroke:#ff0000;stroke-width:0.28346455;stroke-linecap:round;stroke-linejoin:miter;stroke-miterlimit:10;stroke-dasharray:none;stroke-opacity:1"
   d="m 1309.6609,471.59292 c 3.131,0 5.6693,2.5383 5.6693,5.6693 0,3.1311 -2.5383,5.6693 -5.6693,5.6693 -3.1311,0 -5.6693,-2.5382 -5.6693,-5.6693 0,-3.131 2.5382,-5.6693 5.6693,-5.6693 z"
   id="path870"
   inkscape:connector-curvature="0"
   sodipodi:nodetypes="ssscs" /><path
   style="fill:none;stroke:#ff0000;stroke-width:0.28346455;stroke-linecap:round;stroke-linejoin:miter;stroke-miterlimit:10;stroke-dasharray:none;stroke-opacity:1"
   d="m 1167.9286,471.59292 c 3.131,0 5.6692,2.5383 5.6692,5.6693 0,3.1311 -2.5382,5.6693 -5.6692,5.6693 -3.1311,0 -5.6693,-2.5382 -5.6693,-5.6693 0,-3.131 2.5382,-5.6693 5.6693,-5.6693 z"
   id="path868"
   inkscape:connector-curvature="0"
   sodipodi:nodetypes="ssscs" /><path
   style="fill:none;stroke:#ff0000;stroke-width:0.28346455;stroke-linecap:round;stroke-linejoin:miter;stroke-miterlimit:10;stroke-dasharray:none;stroke-opacity:1"
   d="m 1026.1962,471.59292 c 3.1311,0 5.6693,2.5383 5.6693,5.6693 0,3.1311 -2.5382,5.6693 -5.6693,5.6693 -3.131,0 -5.6692,-2.5382 -5.6692,-5.6693 0,-3.131 2.5382,-5.6693 5.6692,-5.6693 z"
   id="path866"
   inkscape:connector-curvature="0"
   sodipodi:nodetypes="ssscs" /><path
   style="fill:none;stroke:#ff0000;stroke-width:0.28346455;stroke-linecap:round;stroke-linejoin:miter;stroke-miterlimit:10;stroke-dasharray:none;stroke-opacity:1"
   d="m 884.46406,471.59292 c 3.131,0 5.6692,2.5383 5.6692,5.6693 0,3.1311 -2.5382,5.6693 -5.6692,5.6693 -3.1311,0 -5.6693,-2.5382 -5.6693,-5.6693 0,-3.131 2.5382,-5.6693 5.6693,-5.6693 z"
   id="path864"
   inkscape:connector-curvature="0"
   sodipodi:nodetypes="ssscs" /><path
   style="fill:none;stroke:#ff0000;stroke-width:0.28346455;stroke-linecap:round;stroke-linejoin:miter;stroke-miterlimit:10;stroke-dasharray:none;stroke-opacity:1"
   d="m 742.73166,471.59292 c 3.1311,0 5.6693,2.5383 5.6693,5.6693 0,3.1311 -2.5382,5.6693 -5.6693,5.6693 -3.131,0 -5.6692,-2.5382 -5.6692,-5.6693 0,-3.131 2.5382,-5.6693 5.6692,-5.6693 z"
   id="path862"
   inkscape:connector-curvature="0"
   sodipodi:nodetypes="ssscs" /><path
   style="fill:none;stroke:#ff0000;stroke-width:0.28346455;stroke-linecap:round;stroke-linejoin:miter;stroke-miterlimit:10;stroke-dasharray:none;stroke-opacity:1"
   d="m 600.99936,471.59292 c 3.1311,0 5.6693,2.5383 5.6693,5.6693 0,3.1311 -2.5382,5.6693 -5.6693,5.6693 -3.131,0 -5.6693,-2.5382 -5.6693,-5.6693 0,-3.131 2.5383,-5.6693 5.6693,-5.6693 z"
   id="path860"
   inkscape:connector-curvature="0"
   sodipodi:nodetypes="ssscs" /><path
   style="fill:none;stroke:#ff0000;stroke-width:0.28346455;stroke-linecap:round;stroke-linejoin:miter;stroke-miterlimit:10;stroke-dasharray:none;stroke-opacity:1"
   d="m 459.26706,471.59292 c 3.1311,0 5.6693,2.5383 5.6693,5.6693 0,3.1311 -2.5382,5.6693 -5.6693,5.6693 -3.131,0 -5.6693,-2.5382 -5.6693,-5.6693 0,-3.131 2.5383,-5.6693 5.6693,-5.6693 z"
   id="path858"
   inkscape:connector-curvature="0"
   sodipodi:nodetypes="ssscs" /><path
   style="fill:none;stroke:#ff0000;stroke-width:0.28346455;stroke-linecap:round;stroke-linejoin:miter;stroke-miterlimit:10;stroke-dasharray:none;stroke-opacity:1"
   d="m 317.53486,471.59292 c 3.131,0 5.6693,2.5383 5.6693,5.6693 0,3.1311 -2.5383,5.6693 -5.6693,5.6693 -3.1311,0 -5.6693,-2.5382 -5.6693,-5.6693 0,-3.131 2.5382,-5.6693 5.6693,-5.6693 z"
   id="path856"
   inkscape:connector-curvature="0"
   sodipodi:nodetypes="ssscs" /><path
   style="fill:none;stroke:#ff0000;stroke-width:0.28346455;stroke-linecap:round;stroke-linejoin:miter;stroke-miterlimit:10;stroke-dasharray:none;stroke-opacity:1"
   d="m 175.80256,471.59292 c 3.131,0 5.6693,2.5383 5.6693,5.6693 0,3.1311 -2.5383,5.6693 -5.6693,5.6693 -3.1311,0 -5.6693,-2.5382 -5.6693,-5.6693 0,-3.131 2.5382,-5.6693 5.6693,-5.6693 z"
   id="path854"
   inkscape:connector-curvature="0"
   sodipodi:nodetypes="ssscs" /><path
   style="fill:none;stroke:#ff0000;stroke-width:0.28346455;stroke-linecap:round;stroke-linejoin:miter;stroke-miterlimit:10;stroke-dasharray:none;stroke-opacity:1"
   d="m 1593.1255,613.32522 c 3.131,0 5.6693,2.5383 5.6693,5.6693 0,3.1311 -2.5383,5.6693 -5.6693,5.6693 -3.1311,0 -5.6693,-2.5382 -5.6693,-5.6693 0,-3.131 2.5382,-5.6693 5.6693,-5.6693 z"
   id="path852"
   inkscape:connector-curvature="0"
   sodipodi:nodetypes="ssscs" /><path
   style="fill:none;stroke:#ff0000;stroke-width:0.28346455;stroke-linecap:round;stroke-linejoin:miter;stroke-miterlimit:10;stroke-dasharray:none;stroke-opacity:1"
   d="m 1451.3932,613.32522 c 3.131,0 5.6693,2.5383 5.6693,5.6693 0,3.1311 -2.5383,5.6693 -5.6693,5.6693 -3.1311,0 -5.6693,-2.5382 -5.6693,-5.6693 0,-3.131 2.5382,-5.6693 5.6693,-5.6693 z"
   id="path850"
   inkscape:connector-curvature="0"
   sodipodi:nodetypes="ssscs" /><path
   style="fill:none;stroke:#ff0000;stroke-width:0.28346455;stroke-linecap:round;stroke-linejoin:miter;stroke-miterlimit:10;stroke-dasharray:none;stroke-opacity:1"
   d="m 1309.6609,613.32522 c 3.131,0 5.6693,2.5383 5.6693,5.6693 0,3.1311 -2.5383,5.6693 -5.6693,5.6693 -3.1311,0 -5.6693,-2.5382 -5.6693,-5.6693 0,-3.131 2.5382,-5.6693 5.6693,-5.6693 z"
   id="path848"
   inkscape:connector-curvature="0"
   sodipodi:nodetypes="ssscs" /><path
   style="fill:none;stroke:#ff0000;stroke-width:0.28346455;stroke-linecap:round;stroke-linejoin:miter;stroke-miterlimit:10;stroke-dasharray:none;stroke-opacity:1"
   d="m 1167.9286,613.32522 c 3.131,0 5.6692,2.5383 5.6692,5.6693 0,3.1311 -2.5382,5.6693 -5.6692,5.6693 -3.1311,0 -5.6693,-2.5382 -5.6693,-5.6693 0,-3.131 2.5382,-5.6693 5.6693,-5.6693 z"
   id="path846"
   inkscape:connector-curvature="0"
   sodipodi:nodetypes="ssscs" /><path
   style="fill:none;stroke:#ff0000;stroke-width:0.28346455;stroke-linecap:round;stroke-linejoin:miter;stroke-miterlimit:10;stroke-dasharray:none;stroke-opacity:1"
   d="m 1026.1962,613.32522 c 3.1311,0 5.6693,2.5383 5.6693,5.6693 0,3.1311 -2.5382,5.6693 -5.6693,5.6693 -3.131,0 -5.6692,-2.5382 -5.6692,-5.6693 0,-3.131 2.5382,-5.6693 5.6692,-5.6693 z"
   id="path844"
   inkscape:connector-curvature="0"
   sodipodi:nodetypes="ssscs" /><path
   style="fill:none;stroke:#ff0000;stroke-width:0.28346455;stroke-linecap:round;stroke-linejoin:miter;stroke-miterlimit:10;stroke-dasharray:none;stroke-opacity:1"
   d="m 884.46406,613.32522 c 3.131,0 5.6692,2.5383 5.6692,5.6693 0,3.1311 -2.5382,5.6693 -5.6692,5.6693 -3.1311,0 -5.6693,-2.5382 -5.6693,-5.6693 0,-3.131 2.5382,-5.6693 5.6693,-5.6693 z"
   id="path842"
   inkscape:connector-curvature="0"
   sodipodi:nodetypes="ssscs" /><path
   style="fill:none;stroke:#ff0000;stroke-width:0.28346455;stroke-linecap:round;stroke-linejoin:miter;stroke-miterlimit:10;stroke-dasharray:none;stroke-opacity:1"
   d="m 742.73166,613.32522 c 3.1311,0 5.6693,2.5383 5.6693,5.6693 0,3.1311 -2.5382,5.6693 -5.6693,5.6693 -3.131,0 -5.6692,-2.5382 -5.6692,-5.6693 0,-3.131 2.5382,-5.6693 5.6692,-5.6693 z"
   id="path840"
   inkscape:connector-curvature="0"
   sodipodi:nodetypes="ssscs" /><path
   style="fill:none;stroke:#ff0000;stroke-width:0.28346455;stroke-linecap:round;stroke-linejoin:miter;stroke-miterlimit:10;stroke-dasharray:none;stroke-opacity:1"
   d="m 600.99936,613.32522 c 3.1311,0 5.6693,2.5383 5.6693,5.6693 0,3.1311 -2.5382,5.6693 -5.6693,5.6693 -3.131,0 -5.6693,-2.5382 -5.6693,-5.6693 0,-3.131 2.5383,-5.6693 5.6693,-5.6693 z"
   id="path838"
   inkscape:connector-curvature="0"
   sodipodi:nodetypes="ssscs" /><path
   style="fill:none;stroke:#ff0000;stroke-width:0.28346455;stroke-linecap:round;stroke-linejoin:miter;stroke-miterlimit:10;stroke-dasharray:none;stroke-opacity:1"
   d="m 459.26706,613.32522 c 3.1311,0 5.6693,2.5383 5.6693,5.6693 0,3.1311 -2.5382,5.6693 -5.6693,5.6693 -3.131,0 -5.6693,-2.5382 -5.6693,-5.6693 0,-3.131 2.5383,-5.6693 5.6693,-5.6693 z"
   id="path836"
   inkscape:connector-curvature="0"
   sodipodi:nodetypes="ssscs" /><path
   style="fill:none;stroke:#ff0000;stroke-width:0.28346455;stroke-linecap:round;stroke-linejoin:miter;stroke-miterlimit:10;stroke-dasharray:none;stroke-opacity:1"
   d="m 317.53486,613.32522 c 3.131,0 5.6693,2.5383 5.6693,5.6693 0,3.1311 -2.5383,5.6693 -5.6693,5.6693 -3.1311,0 -5.6693,-2.5382 -5.6693,-5.6693 0,-3.131 2.5382,-5.6693 5.6693,-5.6693 z"
   id="path834"
   inkscape:connector-curvature="0"
   sodipodi:nodetypes="ssscs" /><path
   style="fill:none;stroke:#ff0000;stroke-width:0.28346455;stroke-linecap:round;stroke-linejoin:miter;stroke-miterlimit:10;stroke-dasharray:none;stroke-opacity:1"
   d="m 175.80256,613.32522 c 3.131,0 5.6693,2.5383 5.6693,5.6693 0,3.1311 -2.5383,5.6693 -5.6693,5.6693 -3.1311,0 -5.6693,-2.5382 -5.6693,-5.6693 0,-3.131 2.5382,-5.6693 5.6693,-5.6693 z"
   id="path13693"
   inkscape:connector-curvature="0"
   sodipodi:nodetypes="ssscs" /><flowRoot
   xml:space="preserve"
   id="flowRoot14977"
   style="fill:black;fill-opacity:1;stroke:none;font-family:sans-serif;font-style:normal;font-weight:normal;font-size:40px;line-height:1.25;letter-spacing:0px;word-spacing:0px"><flowRegion
     id="flowRegion14979"><rect
       id="rect14981"
       width="114.84435"
       height="114.67413"
       x="112"
       y="193.85828" /></flowRegion><flowPara
     id="flowPara14983" /></flowRoot><flowRoot
   xml:space="preserve"
   id="flowRoot14985"
   style="fill:black;fill-opacity:1;stroke:none;font-family:sans-serif;font-style:normal;font-weight:normal;font-size:85.33333333px;line-height:1.25;letter-spacing:0px;word-spacing:0px;"><flowRegion
     id="flowRegion14987"
     style="font-size:85.33333333px;"><rect
       id="rect14989"
       width="200"
       height="148"
       x="92"
       y="197.85828"
       style="font-size:85.33333333px;" /></flowRegion><flowPara
     id="flowPara14991" /></flowRoot><text
   xml:space="preserve"
   style="font-style:normal;font-weight:normal;font-size:64px;line-height:7.25;font-family:sans-serif;letter-spacing:0px;word-spacing:0px;fill:none;fill-opacity:1;stroke:#0000ff;stroke-width:0.75;stroke-opacity:1;"
   x="-690.57001"
   y="-83.553329"
   id="text14995"
   transform="matrix(0,-1,-1,0,0,0)"><tspan
     sodipodi:role="line"
     id="tspan14993"
     x="-690.57001"
     y="-83.553329"
     style="font-size:64px;line-height:7.25;stroke-width:0.75;fill:none;stroke:#0000ff;stroke-opacity:1;">3</tspan></text>


</g></svg>